<svg xmlns="http://www.w3.org/2000/svg" viewBox="0 0 165.9 118.56" xmlns:v="https://vecta.io/nano"><path d="M38.235 8.843c-.951.66-1.283 1.251-1.283 2.273.016 1.227.416 1.912 1.339 2.357.932.453 1.56.453 2.512.019.831-.383 1.403-1.356 1.424-2.391.013-1.972-2.395-3.325-3.992-2.259m13.106-4.306c-1.889.849-1.909 3.94-.019 4.801.94.419 1.527.419 2.376-.016.992-.501 1.455-1.265 1.455-2.373 0-.976-.297-1.563-1.143-2.188-.591-.428-1.956-.553-2.669-.224M1.529 56.228C.661 56.796.14 57.953.314 58.925c.295 1.493 1.389 2.363 2.84 2.196 1.479-.147 2.38-1.155 2.38-2.641 0-1-.507-1.803-1.389-2.273-.969-.488-1.872-.488-2.616.021"/><path d="M13.022 25.762c-.748.469-1.32 1.703-1.197 2.619.189 1.385 1.319 2.307 2.788 2.292 1.965-.039 3.157-2.219 2.152-3.955-.724-1.247-2.515-1.699-3.743-.956m.813 8c-1.624.485-2.44 2.284-1.68 3.78.467.923 1.076 1.297 2.221 1.385 1.127.063 1.872-.312 2.424-1.211 1.199-1.957-.795-4.616-2.965-3.955m-.573 9.001c-.899.492-1.265 1.081-1.332 2.221-.092 1.233.292 1.963 1.312 2.481 1.876.94 3.837-.26 3.837-2.34 0-2.047-2.047-3.309-3.817-2.363m.506 8.747c-.885.317-1.265.683-1.613 1.579-.695 1.817.553 3.54 2.584 3.54 1.421 0 2.547-1.187 2.547-2.711 0-1.7-1.872-2.973-3.517-2.408m-.307 8.72c-.904.333-1.613 1.164-1.755 2.117-.133 1.003.455 2.241 1.319 2.685 1.353.693 3.032.211 3.679-1.071 1.108-2.187-.971-4.564-3.243-3.732m-.773 8.627c-1.996 1.677-.952 4.747 1.625 4.747 2.032 0 3.385-2.412 2.275-4.087-.761-1.179-2.857-1.529-3.9-.66m1.106 7.187c-1.265.42-1.885 1.277-1.885 2.669 0 1.541 1.264 2.619 2.927 2.493.832-.055 1.024-.153 1.579-.756.849-.905 1.023-1.811.555-2.887-.191-.409-.572-.908-.849-1.12-.601-.417-1.66-.604-2.325-.4M1.502 48.935c-1.86.807-2.033 3.585-.299 4.641.676.416 1.771.52 2.551.225 1.04-.4 1.697-1.789 1.492-3.108-.261-1.524-2.219-2.457-3.744-1.759m.653 14.587c-1.16.292-2.081 1.695-1.94 2.924.292 2.623 3.653 3.263 4.955.939.695-1.227.228-2.913-1.003-3.54-.556-.285-1.528-.448-2.012-.323m35.88-46.892c-1.889.849-1.907 3.94-.017 4.799.939.419 1.525.419 2.375-.017.992-.501 1.456-1.261 1.456-2.373 0-.972-.299-1.559-1.144-2.184-.591-.436-1.956-.553-2.669-.224m13.452-3.494c-1.545.679-1.995 2.799-.903 4.172.92 1.185 2.999 1.239 4.025.115.764-.855.864-2.395.207-3.383-.623-.968-2.2-1.389-3.329-.904M75.78 64.388a2.78 2.78 0 0 0-.428 3.711c.723 1.024 2.545 1.315 3.623.592 1.468-.988 1.593-3.02.241-4.288-.367-.339-.675-.431-1.628-.491-1.115-.056-1.217-.031-1.808.476M63.114 77.481c-2.167 1.268-1.403 4.603 1.132 4.927 1.575.193 2.913-1.039 2.913-2.721 0-2.007-2.253-3.227-4.045-2.205m63.265 20.452l-.725.259c-.013 0-.244.299-.485.645a2.49 2.49 0 0 0-.431 1.525c0 2.547 2.891 3.641 4.685 1.748.581-.639.688-2.36.187-3.169-.623-.988-2.029-1.423-3.231-1.008m24.893-64.105c-1.233.724-1.649 2.167-.988 3.445 1.317 2.563 4.987 1.704 4.987-1.157 0-2.077-2.195-3.333-3.999-2.288"/><path d="M26.355 17.229c-1.889.847-1.905 3.939-.019 4.799.94.419 1.527.419 2.376-.015.992-.507 1.455-1.265 1.455-2.379 0-.969-.297-1.559-1.143-2.181-.592-.431-1.957-.553-2.669-.224m.133 8.613c-1.545.679-1.995 2.797-.905 4.173.923 1.18 3.001 1.239 4.028.111.765-.851.864-2.393.207-3.381-.623-.969-2.201-1.389-3.329-.903m.412 8.453c-1.375.244-2.015 1.181-1.893 2.759.085 1.141.504 1.751 1.479 2.169 1.832.78 3.688-.437 3.688-2.431 0-1.821-1.332-2.843-3.273-2.497m-.347 8.627c-.868.433-1.336 1.32-1.3 2.477.032 1.56 1.057 2.52 2.651 2.497 1.476-.019 2.428-.915 2.529-2.371.173-2.155-1.939-3.557-3.88-2.604m-.533 9.041c-1.956 1.645-.883 4.732 1.648 4.732 2.551 0 3.643-3.063 1.683-4.732-.487-.399-.728-.468-1.668-.468-.933 0-1.177.069-1.663.468m.426 8.679a5.96 5.96 0 0 0-.919.849c-.455.625-.469 1.996-.017 2.779.367.641 1.595 1.369 2.323 1.369.745 0 1.943-.728 2.292-1.391.431-.839.415-2.063-.092-2.792-.773-1.177-2.473-1.553-3.587-.815m.253 8.041c-1.041.313-1.664 1.267-1.717 2.6-.019.927.277 1.497 1.144 2.155.673.501 2.133.571 2.863.123a2.68 2.68 0 0 0 1.248-2.277c0-1.067-.485-1.901-1.388-2.372-.779-.412-1.319-.467-2.149-.228m-.134 7.932c-.433.232-.919.641-1.092.973-.449.779-.449 2.168 0 2.799 1.18 1.567 3.207 1.656 4.456.181.367-.443.455-.729.455-1.527 0-1.265-.439-2.011-1.444-2.46-.951-.435-1.437-.435-2.375.033m11.613-51.384c-1.545.683-1.993 2.8-.904 4.177.924 1.183 3 1.235 4.025.112.765-.855.864-2.395.208-3.383-.624-.972-2.201-1.388-3.329-.907m.414 8.467c-1.375.243-2.012 1.184-1.895 2.759.085 1.143.505 1.752 1.479 2.167 1.832.779 3.688-.433 3.688-2.429 0-1.821-1.331-2.841-3.272-2.496m-.347 8.626c-.864.433-1.332 1.319-1.299 2.477.032 1.559 1.059 2.52 2.651 2.496 1.479-.017 2.428-.913 2.531-2.371.175-2.153-1.94-3.556-3.883-2.603m-.533 9.041c-1.955 1.64-.884 4.731 1.649 4.731 2.549 0 3.641-3.064 1.681-4.731-.487-.401-.727-.469-1.669-.469-.929 0-1.173.068-1.661.469m.426 8.679a5.61 5.61 0 0 0-.921.847c-.453.625-.468 1.993-.019 2.779.368.639 1.597 1.368 2.328 1.368.741 0 1.941-.729 2.292-1.391.427-.84.411-2.061-.096-2.791-.773-1.179-2.475-1.555-3.584-.812m.254 8.04c-1.039.313-1.664 1.269-1.72 2.603-.016.925.279 1.493 1.148 2.151.673.5 2.131.571 2.863.124.779-.508 1.247-1.336 1.247-2.275 0-1.068-.487-1.904-1.388-2.372-.78-.415-1.319-.469-2.149-.231m-.135 7.933c-.435.229-.919.643-1.092.972-.449.777-.449 2.167 0 2.796 1.18 1.568 3.205 1.656 4.455.185.367-.447.453-.729.453-1.524 0-1.268-.435-2.015-1.443-2.461-.952-.435-1.44-.435-2.373.032m13.627-54.412c-1.373.243-2.012 1.183-1.895 2.759.085 1.14.507 1.752 1.479 2.169 1.833.775 3.689-.443 3.689-2.435 0-1.819-1.332-2.841-3.273-2.493m-.334 8.627c-.864.432-1.332 1.319-1.299 2.477.032 1.555 1.057 2.52 2.651 2.496 1.477-.019 2.428-.915 2.531-2.371.176-2.153-1.94-3.556-3.883-2.603m-.533 9.041C49.066 40.909 50.138 44 52.669 44c2.551 0 3.643-3.065 1.681-4.731-.487-.404-.727-.471-1.668-.471-.929 0-1.176.067-1.661.471m.413 8.679a5.91 5.91 0 0 0-.92.847c-.455.629-.469 1.996-.02 2.783.368.639 1.597 1.368 2.329 1.368.741 0 1.941-.729 2.289-1.392.431-.84.411-2.06-.095-2.789-.773-1.179-2.473-1.557-3.584-.816m.255 8.039c-1.04.315-1.665 1.267-1.72 2.603-.017.925.279 1.493 1.148 2.152.672.5 2.129.571 2.861.124.78-.509 1.247-1.336 1.247-2.276 0-1.069-.485-1.904-1.389-2.375-.777-.411-1.316-.467-2.147-.228m-.134 7.933c-.435.228-.92.64-1.092.972-.451.776-.451 2.165 0 2.795 1.18 1.571 3.204 1.657 4.453.185.369-.444.453-.729.453-1.527 0-1.267-.433-2.015-1.443-2.459-.951-.436-1.439-.436-2.372.033M76.1.376c-.751.465-1.321 1.703-1.196 2.619.187 1.384 1.315 2.307 2.784 2.291 1.965-.039 3.16-2.22 2.153-3.955C79.119.083 77.328-.371 76.1.376m.814 7.987c-1.625.483-2.444 2.281-1.684 3.779.469.919 1.077 1.296 2.22 1.381 1.132.065 1.873-.312 2.427-1.212 1.196-1.953-.796-4.613-2.963-3.948m-.574 9.013c-.897.493-1.265 1.08-1.333 2.223-.091 1.231.295 1.961 1.313 2.477 1.876.941 3.836-.259 3.836-2.339 0-2.045-2.044-3.311-3.816-2.361m.507 8.733c-.887.321-1.268.681-1.616 1.58-.695 1.815.555 3.537 2.585 3.537 1.421 0 2.545-1.184 2.545-2.711 0-1.7-1.871-2.973-3.515-2.407m-.319 8.721c-.899.337-1.611 1.163-1.751 2.116-.135 1.008.453 2.243 1.319 2.687 1.351.695 3.031.212 3.68-1.069 1.105-2.188-.973-4.565-3.248-3.733m-.76 8.638c-1.995 1.683-.953 4.747 1.625 4.747 2.032 0 3.385-2.408 2.275-4.087-.761-1.179-2.861-1.529-3.9-.66m1.107 7.174c-1.265.416-1.887 1.277-1.887 2.667 0 1.54 1.263 2.619 2.929 2.496.831-.055 1.023-.157 1.577-.759.849-.903 1.021-1.809.555-2.887-.191-.411-.573-.909-.851-1.119-.6-.419-1.664-.607-2.324-.399"/><path d="M63.434.296c-1.888.853-1.905 3.94-.017 4.801.94.42 1.527.42 2.376-.016.992-.501 1.455-1.264 1.455-2.373 0-.975-.297-1.559-1.143-2.187-.591-.429-1.955-.553-2.671-.225m.133 8.613c-1.543.679-1.993 2.797-.9 4.172.92 1.185 2.997 1.24 4.023.115.765-.853.864-2.395.208-3.383-.624-.971-2.2-1.389-3.331-.904m.414 8.467c-1.373.241-2.013 1.183-1.896 2.757.087 1.143.507 1.752 1.48 2.169 1.833.776 3.688-.44 3.688-2.433 0-1.82-1.331-2.841-3.272-2.493m-.347 8.626c-.864.431-1.331 1.316-1.299 2.475.033 1.559 1.059 2.519 2.649 2.496 1.479-.017 2.428-.915 2.532-2.369.175-2.155-1.941-3.553-3.883-2.601m-.532 9.039c-1.956 1.644-.885 4.733 1.648 4.733 2.551 0 3.64-3.067 1.681-4.733-.487-.405-.727-.469-1.667-.469-.931 0-1.177.064-1.663.469m.427 8.666c-.312.223-.727.609-.92.848-.455.625-.469 1.991-.02 2.779.369.639 1.596 1.368 2.328 1.368.741 0 1.941-.729 2.292-1.391.427-.841.411-2.059-.096-2.791-.775-1.179-2.475-1.556-3.584-.813m.254 8.04c-1.039.315-1.661 1.272-1.72 2.605-.016.923.279 1.493 1.148 2.149.672.501 2.129.571 2.863.121.781-.507 1.245-1.333 1.245-2.271 0-1.069-.485-1.904-1.388-2.373-.779-.415-1.317-.467-2.148-.232m-.134 7.948c-.432.229-.916.64-1.091.972-.451.777-.451 2.167 0 2.795 1.18 1.571 3.205 1.659 4.455.187.371-.445.455-.728.455-1.524 0-1.268-.435-2.013-1.441-2.461-.953-.436-1.441-.436-2.377.032M90.38 2.056c-1.377.243-2.012 1.184-1.891 2.759.08 1.144.501 1.752 1.475 2.167 1.833.781 3.691-.436 3.691-2.432 0-1.815-1.331-2.84-3.275-2.493m-.347 8.626c-.861.429-1.331 1.316-1.3 2.473.033 1.563 1.063 2.52 2.649 2.501 1.483-.02 2.431-.919 2.533-2.372.177-2.153-1.94-3.556-3.883-2.603m-.532 9.04c-1.956 1.643-.884 4.732 1.651 4.732 2.549 0 3.637-3.064 1.679-4.732-.487-.405-.729-.468-1.667-.468-.932 0-1.176.063-1.663.468m.427 8.667a6.03 6.03 0 0 0-.924.852c-.451.625-.465 1.995-.016 2.777.368.643 1.595 1.369 2.329 1.369.741 0 1.94-.727 2.288-1.395.433-.839.415-2.057-.091-2.785-.776-1.18-2.477-1.56-3.587-.819m.254 8.041c-1.041.316-1.667 1.267-1.724 2.604-.013.923.279 1.497 1.149 2.153.669.497 2.131.569 2.861.12a2.68 2.68 0 0 0 1.247-2.273c0-1.071-.488-1.907-1.389-2.373-.777-.412-1.316-.468-2.144-.231m-.133 7.946c-.435.231-.921.643-1.093.975-.449.777-.449 2.167 0 2.793 1.18 1.567 3.209 1.659 4.46.183.365-.44.452-.727.452-1.525 0-1.263-.436-2.007-1.443-2.459-.953-.436-1.44-.436-2.376.033m11.466-42.666c-1.888.851-1.905 3.943-.015 4.801.939.419 1.521.419 2.375-.015.989-.505 1.452-1.265 1.452-2.372 0-.977-.295-1.564-1.14-2.188-.592-.431-1.955-.556-2.672-.227m.147 8.615c-1.544.677-1.996 2.793-.903 4.172.923 1.184 2.999 1.239 4.024.112.767-.853.865-2.397.208-3.381-.624-.969-2.2-1.389-3.329-.903m.413 8.466c-1.377.243-2.015 1.181-1.899 2.757.089 1.143.509 1.751 1.483 2.165 1.828.781 3.688-.439 3.688-2.429 0-1.82-1.333-2.84-3.272-2.493m-.347 8.626c-.865.431-1.329 1.316-1.295 2.472.031 1.559 1.052 2.523 2.648 2.5 1.477-.019 2.429-.915 2.528-2.371.179-2.156-1.94-3.555-3.881-2.601m-.533 9.027c-1.956 1.644-.883 4.736 1.648 4.736 2.549 0 3.641-3.068 1.683-4.736-.487-.401-.729-.467-1.667-.467-.931 0-1.177.065-1.664.467m13.426-28.679c-1.891.851-1.907 3.943-.016 4.803.935.421 1.521.421 2.375-.015.989-.505 1.453-1.267 1.453-2.376 0-.975-.296-1.561-1.141-2.185-.593-.433-1.956-.555-2.671-.227m.134 8.599c-1.54.679-1.992 2.795-.899 4.173.919 1.18 2.997 1.239 4.021.108.765-.849.867-2.385.211-3.376-.625-.973-2.204-1.389-3.333-.905m.426 8.467c-1.372.24-2.012 1.181-1.896 2.757.087 1.145.508 1.752 1.483 2.171 1.828.779 3.688-.441 3.688-2.435 0-1.82-1.337-2.836-3.275-2.493m-.346 8.626c-.868.436-1.333 1.316-1.295 2.475.029 1.559 1.052 2.523 2.645 2.499 1.477-.021 2.429-.917 2.533-2.371.172-2.155-1.945-3.556-3.884-2.603m-.613 9.573c-1.889.851-1.909 3.939-.019 4.8.943.419 1.523.419 2.38-.012.989-.507 1.448-1.271 1.448-2.38 0-.973-.297-1.557-1.143-2.184-.587-.432-1.952-.556-2.667-.224m.148 8.6c-1.547.677-1.995 2.796-.899 4.176.915 1.183 2.992 1.235 4.021.109.764-.852.86-2.393.208-3.38-.623-.971-2.207-1.389-3.331-.905m.401 8.467c-1.373.245-2.011 1.184-1.896 2.759.091 1.144.509 1.753 1.479 2.169 1.832.781 3.691-.436 3.691-2.429 0-1.82-1.329-2.844-3.273-2.499m-.348 8.626c-.861.433-1.329 1.32-1.297 2.475.035 1.56 1.061 2.523 2.651 2.5 1.481-.021 2.428-.916 2.531-2.372.179-2.152-1.939-3.557-3.884-2.603m-.534 9.04c-1.953 1.643-.881 4.733 1.648 4.733 2.555 0 3.648-3.067 1.681-4.733-.484-.404-.728-.467-1.664-.467s-1.179.063-1.665.467M100.1 79.094c-1.887.852-1.905 3.943-.015 4.801.943.42 1.528.42 2.375-.016.995-.503 1.453-1.261 1.453-2.375 0-.971-.295-1.559-1.14-2.184-.592-.432-1.956-.555-2.673-.227m.146 8.614c-1.544.681-1.992 2.799-.899 4.177.919 1.184 2.997 1.236 4.021.111.765-.853.865-2.391.208-3.383-.625-.969-2.2-1.385-3.331-.905m.415 8.467c-1.373.243-2.013 1.183-1.891 2.757.081 1.144.501 1.752 1.475 2.168 1.833.78 3.692-.437 3.692-2.431 0-1.821-1.333-2.839-3.276-2.495m-.347 8.627c-.861.432-1.329 1.315-1.3 2.476.033 1.557 1.057 2.517 2.651 2.499 1.48-.023 2.429-.919 2.533-2.375.173-2.155-1.944-3.553-3.884-2.6m-.533 9.04c-1.953 1.643-.88 4.731 1.649 4.731 2.553 0 3.64-3.064 1.684-4.731-.489-.403-.732-.472-1.667-.472s-1.18.069-1.667.472m12.827-24.866c-1.889.847-1.905 3.937-.017 4.797.937.42 1.523.42 2.376-.015.989-.505 1.453-1.263 1.453-2.375 0-.973-.296-1.561-1.141-2.185-.595-.431-1.953-.555-2.671-.223m.133 8.614c-1.539.677-1.989 2.797-.899 4.172.923 1.185 2.999 1.24 4.024.112.764-.849.867-2.392.211-3.379-.625-.969-2.204-1.387-3.336-.905m.427 8.453c-1.376.244-2.013 1.185-1.899 2.76.089 1.143.508 1.751 1.479 2.167 1.833.784 3.685-.435 3.685-2.429 0-1.821-1.328-2.84-3.265-2.497M88.02 77.081c-1.891.849-1.911 3.937-.02 4.799.939.42 1.525.42 2.375-.013.993-.505 1.455-1.268 1.455-2.375 0-.973-.301-1.561-1.143-2.185-.591-.433-1.956-.557-2.667-.225m.133 8.612c-1.544.68-1.992 2.8-.901 4.177.921 1.181 3 1.236 4.023.111.767-.852.865-2.393.209-3.383-.621-.968-2.2-1.389-3.331-.905m.414 8.453c-1.375.245-2.013 1.184-1.893 2.759.083 1.143.504 1.752 1.475 2.168 1.836.78 3.687-.437 3.687-2.428 0-1.824-1.329-2.843-3.268-2.499m1.265-37.612c-1.888.849-1.905 3.939-.017 4.799.94.421 1.525.421 2.375-.015.997-.504 1.456-1.265 1.456-2.375 0-.972-.297-1.56-1.144-2.185-.589-.432-1.955-.556-2.669-.224m.146 8.6c-1.547.681-1.992 2.8-.9 4.177.919 1.183 2.999 1.237 4.023.112.765-.852.863-2.395.203-3.381-.621-.973-2.195-1.389-3.325-.908m35.918-23.72c-1.892.852-1.909 3.939-.017 4.797.939.424 1.524.424 2.376-.013.989-.507 1.452-1.264 1.452-2.373 0-.975-.295-1.559-1.14-2.185-.592-.431-1.956-.557-2.671-.225m.147 8.599c-1.539.681-1.991 2.8-.897 4.177.92 1.185 3 1.24 4.021.112.767-.852.868-2.392.209-3.38-.625-.969-2.201-1.389-3.333-.909m.413 8.466c-1.373.243-2.015 1.18-1.896 2.757.087 1.14.507 1.752 1.48 2.167 1.833.781 3.691-.436 3.691-2.429 0-1.821-1.337-2.843-3.275-2.495m-.347 8.627c-.865.433-1.329 1.317-1.297 2.475.033 1.56 1.057 2.52 2.651 2.499 1.473-.02 2.427-.916 2.531-2.372.169-2.155-1.945-3.553-3.884-2.601m-.534 9.039c-1.953 1.644-.88 4.735 1.651 4.735 2.552 0 3.641-3.067 1.68-4.735-.487-.403-.727-.468-1.664-.468s-1.18.065-1.667.468m.427 8.679c-.313.223-.731.611-.923.851-.452.624-.468 1.993-.023 2.779.373.637 1.6 1.368 2.333 1.368s1.937-.731 2.289-1.392c.429-.841.409-2.06-.099-2.791-.769-1.176-2.472-1.556-3.579-.815m-50.877-5.533c-1.891.851-1.909 3.939-.021 4.799.941.421 1.528.421 2.377-.015.992-.507 1.456-1.267 1.456-2.373 0-.972-.299-1.56-1.143-2.185-.592-.433-1.959-.557-2.669-.225m.133 8.612c-1.545.68-1.992 2.8-.904 4.173.921 1.184 2.999 1.24 4.027.112.764-.849.864-2.391.207-3.377-.623-.971-2.201-1.389-3.329-.908m63.744-67.851c-1.892.852-1.911 3.941-.02 4.797.94.421 1.525.421 2.375-.009.995-.508 1.459-1.272 1.459-2.38 0-.972-.303-1.556-1.149-2.18-.585-.433-1.955-.556-2.664-.228m.146 8.599c-1.547.677-1.995 2.796-.901 4.173.916 1.185 3 1.24 4.024.108.765-.848.861-2.388.203-3.376-.623-.969-2.196-1.389-3.325-.905"/><path d="M126.712 12.389c-1.888.849-1.907 3.94-.021 4.8.941.421 1.528.421 2.372-.016.997-.504 1.46-1.265 1.46-2.376 0-.973-.293-1.559-1.147-2.183-.587-.431-1.953-.553-2.664-.225m.147 8.613c-1.547.685-1.992 2.8-.899 4.177.92 1.184 2.997 1.239 4.021.112.764-.853.86-2.393.204-3.379-.617-.971-2.195-1.389-3.327-.911m.401 8.468c-1.373.244-2.008 1.184-1.891 2.759.08 1.143.503 1.753 1.473 2.169 1.837.777 3.691-.436 3.691-2.429 0-1.82-1.329-2.843-3.273-2.499m34.719 27.466c-1.885.851-1.907 3.943-.016 4.799.94.423 1.521.423 2.372-.012.993-.507 1.456-1.267 1.456-2.377 0-.973-.296-1.559-1.143-2.181-.592-.435-1.955-.553-2.669-.228m.147 8.599c-1.545.677-1.993 2.796-.905 4.172.919 1.184 2.999 1.239 4.021.112.772-.853.868-2.393.209-3.379-.621-.971-2.2-1.389-3.325-.905m.4 8.466c-1.371.243-2.013 1.183-1.893 2.757.085 1.145.505 1.755 1.481 2.167 1.828.78 3.688-.436 3.688-2.427 0-1.823-1.331-2.841-3.276-2.497m-60.599-25.533c-1.891.851-1.911 3.94-.019 4.801.937.419 1.524.419 2.376-.016.989-.505 1.452-1.268 1.452-2.377 0-.971-.295-1.557-1.14-2.183-.593-.433-1.956-.553-2.669-.225m.134 8.6c-1.544.681-1.997 2.796-.905 4.172.924 1.187 3.001 1.239 4.025.113.768-.853.867-2.393.205-3.383-.62-.968-2.197-1.387-3.325-.903m.413 8.468c-1.373.243-2.011 1.183-1.895 2.757.084 1.143.505 1.753 1.48 2.171 1.831.777 3.689-.437 3.689-2.431 0-1.824-1.335-2.845-3.275-2.497m35.693-23.653c-.748.467-1.319 1.703-1.196 2.619.183 1.381 1.316 2.308 2.785 2.291 1.965-.039 3.155-2.221 2.151-3.957-.725-1.245-2.512-1.699-3.74-.952m.827 7.999c-1.625.481-2.448 2.281-1.681 3.779.461.919 1.076 1.297 2.212 1.381 1.132.069 1.875-.308 2.427-1.209 1.201-1.953-.793-4.616-2.957-3.951m-.588 9.013c-.899.492-1.263 1.08-1.336 2.221-.089 1.233.297 1.963 1.315 2.481 1.88.936 3.833-.259 3.833-2.341 0-2.044-2.041-3.312-3.812-2.361m.52 8.733c-.889.32-1.271.68-1.62 1.58-.696 1.813.551 3.539 2.588 3.539 1.423 0 2.543-1.183 2.543-2.711 0-1.699-1.871-2.976-3.511-2.408m-.32 8.72c-.905.336-1.616 1.165-1.755 2.115-.136 1.005.457 2.245 1.319 2.691 1.351.695 3.032.209 3.679-1.075 1.104-2.185-.976-4.563-3.243-3.731m-.76 8.639c-1.997 1.681-.959 4.751 1.62 4.751 2.032 0 3.389-2.412 2.279-4.091-.765-1.179-2.859-1.528-3.899-.66m12.427-37.052c-.757.465-1.329 1.703-1.201 2.62.185 1.384 1.317 2.308 2.783 2.291 1.973-.037 3.16-2.217 2.152-3.955-.721-1.245-2.507-1.7-3.733-.956m.799 7.986c-1.628.485-2.441 2.283-1.681 3.78.468.923 1.077 1.299 2.219 1.385 1.132.067 1.875-.313 2.428-1.213 1.196-1.951-.797-4.613-2.965-3.952m-.575 9.014c-.895.491-1.265 1.084-1.332 2.221-.089 1.231.297 1.96 1.312 2.481 1.876.936 3.836-.26 3.836-2.341 0-2.045-2.044-3.311-3.816-2.361m.507 8.746c-.88.324-1.265.683-1.615 1.58-.693 1.819.555 3.541 2.587 3.541 1.421 0 2.547-1.185 2.547-2.712 0-1.696-1.872-2.971-3.519-2.409m-.307 8.72c-.901.336-1.611 1.165-1.751 2.115-.135 1.008.452 2.245 1.321 2.692 1.349.695 3.028.208 3.673-1.072 1.108-2.187-.973-4.564-3.244-3.735"/></svg>