<?xml version="1.0" encoding="UTF-8"?>
<svg version="1.1" viewBox="0 0 283.53 208.9" xml:space="preserve" xmlns="http://www.w3.org/2000/svg"><g transform="matrix(1.3333 0 0 -1.3333 -254.59 379.54)" fill="#fff"><path d="m201.06 170.05c0 1.94-1.368 3.606-3.582 3.606h-4.726v-7.213h4.726c2.189 0 3.582 1.667 3.582 3.607zm1.865 0c0-2.935-2.288-5.397-5.447-5.397h-4.726v-6.616h-1.815v17.41h6.541c3.258 0 5.447-2.462 5.447-5.397"/><path d="m221.8 166.72c0-0.772-0.622-1.368-1.368-1.368s-1.369 0.596-1.369 1.368c0 0.746 0.623 1.367 1.369 1.367s1.368-0.621 1.368-1.367zm5.247 0c0 3.929-2.686 7.113-6.591 7.113-3.929 0-6.615-3.184-6.615-7.113 0-3.93 2.686-7.114 6.615-7.114 3.905 0 6.591 3.184 6.591 7.114zm1.841 0c0-4.901-3.532-8.88-8.432-8.88-4.899 0-8.456 3.979-8.456 8.88 0 4.899 3.557 8.879 8.456 8.879 4.9 0 8.432-3.98 8.432-8.879"/><path d="m261.07 175.45-5.62-17.41h-1.816l-4.452 14.476-4.452-14.476h-1.816l-5.696 17.41h2.015l4.626-14.45 4.452 14.45h1.741l4.452-14.45 4.626 14.45h1.94"/><path d="m281.34 159.83v-1.791h-11.566v17.41h11.417v-1.791h-9.625v-6.018h8.854v-1.791h-8.854v-6.019h9.774"/><path d="m301.5 158.04-3.731 6.616h-0.099-4.726v-6.616h-1.791v8.406h6.517c2.213 0 3.606 1.667 3.606 3.607 0 1.965-1.393 3.606-3.606 3.606h-6.517v1.791h6.517c3.283 0 5.471-2.437 5.471-5.397 0-2.263-1.417-4.278-3.506-5.049l3.929-6.964h-2.064"/><path d="m343.86 175.45v-17.41h-1.815v13.953l-6.144-9.6h-1.218l-6.094 9.6v-13.953h-1.815v17.41h1.667l6.864-10.844 6.889 10.844h1.666"/><path d="m354.05 170.5h1.79v-12.461h-1.79zm0 4.949h1.79v-2.637h-1.79z"/><path d="m379.27 175.45v-17.41h-1.642l-9.8 14.127v-14.127h-1.79v17.41h1.642l9.799-14.077v14.077h1.791"/><path d="m403.59 166.74c0-4.8-3.433-8.705-8.779-8.705h-5.348v8.183h1.79v-6.368h3.408c4.452 0 7.014 3.06 7.014 6.89 0 3.806-2.661 6.914-6.989 6.914h-5.223v1.791h5.348c5.421 0 8.779-3.904 8.779-8.705"/><path d="m264.7 136c0.656 0 1.177-0.54 1.177-1.177s-0.521-1.157-1.177-1.157c-0.636 0-1.157 0.52-1.157 1.157s0.521 1.177 1.157 1.177zm3.839-4.031 1.697-0.849c-1.138-1.89-3.144-3.144-5.574-3.144-3.8 0-6.558 3.067-6.558 6.867 0 3.818 2.758 6.885 6.558 6.885 2.43 0 4.436-1.253 5.574-3.164l-1.697-0.829c-0.791 1.292-2.16 2.142-3.877 2.142-2.797 0-4.668-2.238-4.668-5.034 0-2.778 1.871-5.034 4.668-5.034 1.717 0 3.086 0.848 3.877 2.16"/><path d="m291.06 129.97v-1.852h-8.12v13.501h1.852v-11.649h6.268"/><path d="m313.82 141.62v-8.061c0-3.646-2.178-5.575-5.11-5.575s-5.111 1.929-5.111 5.575v8.061h1.851v-8.004c0-2.739 1.369-3.799 3.26-3.799 1.89 0 3.278 1.06 3.278 3.799v8.004h1.832"/><path d="m334.63 132.2c0 1.331-0.887 2.18-2.469 2.18h-3.298v-4.437h3.298c1.563 0 2.469 0.907 2.469 2.257zm1.891 0c0-2.431-1.794-4.089-4.36-4.089h-5.13v8.004h4.764c1.331 0 2.025 0.849 2.025 1.852s-0.521 1.813-1.736 1.813h-5.053v1.832h5.053c2.372 0 3.646-1.678 3.646-3.645 0-1.041-0.56-1.89-1.332-2.507 1.274-0.56 2.123-1.679 2.123-3.26"/></g><g transform="matrix(1.3333 0 0 -1.3333 -254.59 379.54)" fill="#fff"><path d="m263.95 278.03c-0.713-0.495-0.962-0.938-0.962-1.705 0.012-0.92 0.312-1.434 1.004-1.768 0.699-0.34 1.17-0.34 1.884-0.014 0.623 0.287 1.052 1.017 1.068 1.793 0.01 1.479-1.796 2.494-2.994 1.694"/><path d="m273.78 281.26c-1.417-0.637-1.432-2.955-0.014-3.601 0.705-0.314 1.145-0.314 1.782 0.012 0.744 0.376 1.091 0.949 1.091 1.78 0 0.732-0.223 1.172-0.857 1.641-0.443 0.321-1.467 0.415-2.002 0.168"/><path d="m236.42 242.49c-0.651-0.426-1.042-1.294-0.911-2.023 0.221-1.12 1.042-1.772 2.13-1.647 1.109 0.11 1.785 0.866 1.785 1.981 0 0.75-0.38 1.352-1.042 1.705-0.727 0.366-1.404 0.366-1.962-0.016"/><path d="m245.04 265.34c-0.561-0.352-0.99-1.277-0.898-1.964 0.142-1.039 0.989-1.73 2.091-1.719 1.474 0.029 2.368 1.664 1.614 2.966-0.543 0.935-1.886 1.274-2.807 0.717"/><path d="m245.65 259.34c-1.218-0.364-1.83-1.713-1.26-2.835 0.35-0.692 0.807-0.973 1.666-1.039 0.845-0.047 1.404 0.234 1.818 0.908 0.899 1.468-0.596 3.462-2.224 2.966"/><path d="m245.22 252.59c-0.674-0.369-0.949-0.811-0.999-1.666-0.069-0.925 0.219-1.472 0.984-1.861 1.407-0.705 2.878 0.195 2.878 1.755 0 1.535-1.535 2.482-2.863 1.772"/><path d="m245.6 246.03c-0.664-0.238-0.949-0.512-1.21-1.184-0.521-1.363 0.415-2.655 1.938-2.655 1.066 0 1.91 0.89 1.91 2.033 0 1.275-1.404 2.23-2.638 1.806"/><path d="m245.37 239.49c-0.678-0.25-1.21-0.873-1.316-1.588-0.1-0.752 0.341-1.681 0.989-2.014 1.015-0.52 2.274-0.158 2.759 0.803 0.831 1.64-0.728 3.423-2.432 2.799"/><path d="m244.79 233.02c-1.497-1.258-0.714-3.56 1.219-3.56 1.524 0 2.539 1.809 1.706 3.065-0.571 0.884-2.143 1.147-2.925 0.495"/><path d="m245.62 227.63c-0.949-0.315-1.414-0.958-1.414-2.002 0-1.156 0.948-1.964 2.195-1.87 0.624 0.041 0.768 0.115 1.184 0.567 0.637 0.679 0.767 1.358 0.416 2.165-0.143 0.307-0.429 0.681-0.637 0.84-0.451 0.313-1.245 0.453-1.744 0.3"/><path d="m236.4 247.96c-1.395-0.605-1.525-2.689-0.224-3.481 0.507-0.312 1.328-0.39 1.913-0.169 0.78 0.3 1.273 1.342 1.119 2.331-0.196 1.143-1.664 1.843-2.808 1.319"/><path d="m236.89 237.02c-0.87-0.219-1.561-1.271-1.455-2.193 0.219-1.967 2.74-2.447 3.716-0.704 0.521 0.92 0.171 2.185-0.752 2.655-0.417 0.214-1.146 0.336-1.509 0.242"/><path d="m263.8 272.19c-1.417-0.637-1.43-2.955-0.013-3.599 0.704-0.314 1.144-0.314 1.781 0.013 0.744 0.376 1.092 0.946 1.092 1.78 0 0.729-0.224 1.169-0.858 1.638-0.443 0.327-1.467 0.415-2.002 0.168"/><path d="m273.89 274.81c-1.159-0.509-1.496-2.099-0.677-3.129 0.69-0.889 2.249-0.929 3.019-0.086 0.573 0.641 0.648 1.796 0.155 2.537-0.467 0.726-1.65 1.042-2.497 0.678"/><path d="m292.11 236.37c-0.805-0.715-0.948-1.901-0.321-2.783 0.542-0.768 1.909-0.986 2.717-0.444 1.101 0.741 1.195 2.265 0.181 3.216-0.275 0.254-0.506 0.323-1.221 0.368-0.836 0.042-0.913 0.023-1.356-0.357"/><path d="m282.61 226.55c-1.625-0.951-1.052-3.452 0.849-3.695 1.181-0.145 2.185 0.779 2.185 2.041 0 1.505-1.69 2.42-3.034 1.654"/><path d="m330.06 211.21c-0.281-0.107-0.529-0.194-0.544-0.194-0.01 0-0.183-0.224-0.364-0.484-0.234-0.364-0.323-0.658-0.323-1.144 0-1.91 2.168-2.731 3.514-1.311 0.436 0.479 0.516 1.77 0.14 2.377-0.467 0.741-1.522 1.067-2.423 0.756"/><path d="m348.73 259.29c-0.925-0.543-1.237-1.625-0.741-2.584 0.988-1.922 3.74-1.278 3.74 0.868 0 1.558-1.646 2.5-2.999 1.716"/><path d="m255.04 271.74c-1.417-0.635-1.429-2.954-0.014-3.599 0.705-0.314 1.145-0.314 1.782 0.011 0.744 0.38 1.091 0.949 1.091 1.784 0 0.727-0.223 1.169-0.857 1.636-0.444 0.323-1.468 0.415-2.002 0.168"/><path d="m255.14 265.28c-1.159-0.509-1.496-2.098-0.679-3.13 0.692-0.885 2.251-0.929 3.021-0.083 0.574 0.638 0.648 1.795 0.155 2.536-0.467 0.727-1.651 1.042-2.497 0.677"/><path d="m255.45 258.94c-1.031-0.183-1.511-0.886-1.42-2.069 0.064-0.856 0.378-1.313 1.109-1.627 1.374-0.585 2.766 0.328 2.766 1.823 0 1.366-0.999 2.132-2.455 1.873"/><path d="m255.19 252.47c-0.651-0.325-1.002-0.99-0.975-1.858 0.024-1.17 0.793-1.89 1.988-1.873 1.107 0.014 1.821 0.686 1.897 1.778 0.13 1.616-1.454 2.668-2.91 1.953"/><path d="m254.79 245.69c-1.467-1.234-0.662-3.549 1.236-3.549 1.913 0 2.732 2.297 1.262 3.549-0.365 0.299-0.546 0.351-1.251 0.351-0.7 0-0.883-0.052-1.247-0.351"/><path d="m255.11 239.18c-0.232-0.167-0.543-0.459-0.689-0.637-0.341-0.469-0.352-1.497-0.013-2.084 0.275-0.481 1.196-1.027 1.742-1.027 0.559 0 1.457 0.546 1.719 1.043 0.323 0.629 0.311 1.547-0.069 2.094-0.58 0.883-1.855 1.165-2.69 0.611"/><path d="m255.3 233.15c-0.781-0.235-1.248-0.95-1.288-1.95-0.014-0.695 0.208-1.123 0.858-1.616 0.505-0.376 1.6-0.428 2.147-0.092 0.587 0.383 0.936 1.001 0.936 1.708 0 0.8-0.364 1.426-1.041 1.779-0.584 0.309-0.989 0.35-1.612 0.171"/><path d="m255.2 227.2c-0.325-0.174-0.689-0.481-0.819-0.73-0.337-0.584-0.337-1.626 0-2.099 0.885-1.175 2.405-1.242 3.342-0.136 0.275 0.332 0.341 0.547 0.341 1.145 0 0.949-0.329 1.508-1.083 1.845-0.713 0.326-1.078 0.326-1.781-0.025"/><path d="m263.91 265.74c-1.159-0.512-1.495-2.1-0.678-3.133 0.693-0.887 2.25-0.926 3.019-0.084 0.574 0.641 0.648 1.796 0.156 2.537-0.468 0.729-1.651 1.041-2.497 0.68"/><path d="m264.22 259.39c-1.031-0.182-1.509-0.888-1.421-2.069 0.064-0.857 0.379-1.314 1.109-1.625 1.374-0.584 2.766 0.325 2.766 1.822 0 1.366-0.998 2.131-2.454 1.872"/><path d="m263.96 252.92c-0.648-0.325-0.999-0.989-0.974-1.858 0.024-1.169 0.794-1.89 1.988-1.872 1.109 0.013 1.821 0.685 1.898 1.778 0.131 1.615-1.455 2.667-2.912 1.952"/><path d="m263.56 246.14c-1.466-1.23-0.663-3.548 1.237-3.548 1.912 0 2.731 2.298 1.261 3.548-0.365 0.301-0.545 0.352-1.252 0.352-0.697 0-0.88-0.051-1.246-0.352"/><path d="m263.88 239.63c-0.233-0.165-0.545-0.456-0.691-0.635-0.34-0.469-0.351-1.495-0.014-2.084 0.276-0.479 1.198-1.026 1.746-1.026 0.556 0 1.456 0.547 1.719 1.043 0.32 0.63 0.308 1.546-0.072 2.093-0.58 0.884-1.856 1.166-2.688 0.609"/><path d="m264.07 233.6c-0.779-0.235-1.248-0.952-1.29-1.952-0.012-0.694 0.209-1.12 0.861-1.613 0.505-0.375 1.598-0.428 2.147-0.093 0.584 0.381 0.935 1.002 0.935 1.706 0 0.801-0.365 1.428-1.041 1.779-0.585 0.311-0.989 0.352-1.612 0.173"/><path d="m263.97 227.65c-0.326-0.172-0.689-0.482-0.819-0.729-0.337-0.583-0.337-1.625 0-2.097 0.885-1.176 2.404-1.242 3.341-0.139 0.275 0.335 0.34 0.547 0.34 1.143 0 0.951-0.326 1.511-1.082 1.846-0.714 0.326-1.08 0.326-1.78-0.024"/><path d="m274.19 268.46c-1.03-0.182-1.509-0.887-1.421-2.069 0.064-0.855 0.38-1.314 1.109-1.627 1.375-0.581 2.767 0.332 2.767 1.826 0 1.364-0.999 2.131-2.455 1.87"/><path d="m273.94 261.99c-0.648-0.324-0.999-0.989-0.974-1.858 0.024-1.166 0.793-1.89 1.988-1.872 1.108 0.014 1.821 0.686 1.898 1.778 0.132 1.615-1.455 2.667-2.912 1.952"/><path d="m273.54 255.21c-1.466-1.23-0.662-3.548 1.236-3.548 1.913 0 2.732 2.299 1.261 3.548-0.365 0.303-0.545 0.353-1.251 0.353-0.697 0-0.882-0.05-1.246-0.353"/><path d="m273.85 248.7c-0.234-0.168-0.545-0.459-0.69-0.635-0.341-0.472-0.352-1.497-0.015-2.087 0.276-0.479 1.198-1.026 1.747-1.026 0.556 0 1.456 0.547 1.717 1.044 0.323 0.63 0.308 1.545-0.071 2.092-0.58 0.884-1.855 1.168-2.688 0.612"/><path d="m274.04 242.67c-0.78-0.236-1.249-0.95-1.29-1.952-0.013-0.694 0.209-1.12 0.861-1.614 0.504-0.375 1.597-0.428 2.146-0.093 0.585 0.382 0.935 1.002 0.935 1.707 0 0.802-0.364 1.428-1.042 1.781-0.583 0.308-0.987 0.35-1.61 0.171"/><path d="m273.94 236.72c-0.326-0.171-0.69-0.48-0.819-0.729-0.338-0.582-0.338-1.624 0-2.096 0.885-1.178 2.403-1.243 3.34-0.139 0.277 0.333 0.34 0.547 0.34 1.145 0 0.95-0.325 1.511-1.082 1.844-0.713 0.327-1.079 0.327-1.779-0.025"/><path d="m292.35 284.38c-0.563-0.349-0.991-1.277-0.897-1.964 0.14-1.038 0.986-1.73 2.088-1.718 1.474 0.029 2.37 1.665 1.615 2.966-0.542 0.936-1.885 1.276-2.806 0.716"/><path d="m292.96 278.39c-1.219-0.362-1.833-1.711-1.263-2.834 0.352-0.689 0.808-0.972 1.665-1.036 0.849-0.049 1.405 0.234 1.82 0.909 0.897 1.465-0.597 3.46-2.222 2.961"/><path d="m292.53 271.63c-0.673-0.37-0.949-0.81-1-1.667-0.068-0.923 0.221-1.471 0.985-1.858 1.407-0.706 2.877 0.194 2.877 1.754 0 1.534-1.533 2.483-2.862 1.771"/><path d="m292.91 265.08c-0.665-0.241-0.951-0.511-1.212-1.185-0.521-1.361 0.416-2.653 1.939-2.653 1.066 0 1.909 0.888 1.909 2.033 0 1.275-1.403 2.23-2.636 1.805"/><path d="m292.67 258.54c-0.674-0.253-1.208-0.872-1.313-1.587-0.101-0.756 0.34-1.682 0.989-2.015 1.013-0.521 2.273-0.159 2.76 0.802 0.829 1.641-0.73 3.424-2.436 2.8"/><path d="m292.1 252.06c-1.496-1.262-0.715-3.56 1.219-3.56 1.524 0 2.539 1.806 1.706 3.065-0.571 0.884-2.146 1.147-2.925 0.495"/><path d="m292.93 246.68c-0.949-0.312-1.415-0.958-1.415-2 0-1.155 0.947-1.964 2.197-1.872 0.623 0.041 0.767 0.118 1.183 0.569 0.637 0.677 0.766 1.357 0.416 2.165-0.143 0.308-0.43 0.682-0.638 0.839-0.45 0.314-1.248 0.455-1.743 0.299"/><path d="m282.85 284.44c-1.416-0.64-1.429-2.955-0.013-3.601 0.705-0.315 1.145-0.315 1.782 0.012 0.744 0.376 1.091 0.948 1.091 1.78 0 0.731-0.223 1.169-0.857 1.64-0.443 0.322-1.466 0.415-2.003 0.169"/><path d="m282.95 277.98c-1.157-0.509-1.495-2.098-0.675-3.129 0.69-0.889 2.248-0.93 3.017-0.086 0.574 0.64 0.648 1.796 0.156 2.537-0.468 0.728-1.65 1.042-2.498 0.678"/><path d="m283.26 271.63c-1.03-0.181-1.51-0.887-1.422-2.068 0.065-0.857 0.38-1.314 1.11-1.627 1.375-0.582 2.766 0.33 2.766 1.825 0 1.365-0.998 2.131-2.454 1.87"/><path d="m283 265.16c-0.648-0.323-0.998-0.987-0.974-1.856 0.025-1.169 0.794-1.889 1.987-1.872 1.109 0.013 1.821 0.686 1.899 1.777 0.131 1.616-1.456 2.665-2.912 1.951"/><path d="m282.6 258.38c-1.467-1.233-0.664-3.55 1.236-3.55 1.913 0 2.73 2.3 1.261 3.55-0.365 0.304-0.545 0.352-1.25 0.352-0.698 0-0.883-0.048-1.247-0.352"/><path d="m282.92 251.88c-0.234-0.167-0.545-0.457-0.69-0.636-0.341-0.469-0.352-1.493-0.015-2.084 0.277-0.479 1.197-1.026 1.746-1.026 0.556 0 1.456 0.547 1.719 1.043 0.32 0.631 0.308 1.544-0.072 2.093-0.581 0.884-1.856 1.167-2.688 0.61"/><path d="m283.11 245.85c-0.779-0.236-1.246-0.954-1.29-1.954-0.012-0.692 0.209-1.12 0.861-1.612 0.504-0.376 1.597-0.428 2.147-0.091 0.586 0.38 0.934 1 0.934 1.703 0 0.802-0.364 1.428-1.041 1.78-0.584 0.311-0.988 0.35-1.611 0.174"/><path d="m283.01 239.89c-0.324-0.172-0.687-0.48-0.818-0.729-0.338-0.583-0.338-1.625 0-2.096 0.885-1.178 2.404-1.244 3.341-0.14 0.278 0.334 0.341 0.546 0.341 1.143 0 0.951-0.326 1.51-1.081 1.846-0.715 0.327-1.081 0.327-1.783-0.024"/><path d="m303.06 283.12c-1.033-0.182-1.509-0.888-1.418-2.069 0.06-0.858 0.376-1.314 1.106-1.625 1.375-0.586 2.768 0.327 2.768 1.824 0 1.361-0.998 2.13-2.456 1.87"/><path d="m302.8 276.65c-0.646-0.322-0.998-0.987-0.975-1.855 0.025-1.172 0.797-1.89 1.987-1.876 1.112 0.015 1.823 0.689 1.9 1.779 0.133 1.615-1.455 2.667-2.912 1.952"/><path d="m302.4 269.87c-1.467-1.232-0.663-3.549 1.238-3.549 1.912 0 2.728 2.298 1.259 3.549-0.365 0.304-0.547 0.351-1.25 0.351-0.699 0-0.882-0.047-1.247-0.351"/><path d="m302.72 263.37c-0.235-0.171-0.546-0.46-0.693-0.639-0.338-0.469-0.349-1.496-0.012-2.083 0.276-0.482 1.196-1.027 1.747-1.027 0.556 0 1.455 0.545 1.716 1.046 0.325 0.629 0.311 1.543-0.068 2.089-0.582 0.885-1.858 1.17-2.69 0.614"/><path d="m302.91 257.34c-0.781-0.237-1.25-0.95-1.293-1.953-0.01-0.692 0.209-1.123 0.862-1.615 0.502-0.373 1.598-0.427 2.146-0.09 0.586 0.382 0.935 1.001 0.935 1.705 0 0.803-0.366 1.43-1.042 1.78-0.583 0.309-0.987 0.351-1.608 0.173"/><path d="m302.81 251.38c-0.326-0.173-0.691-0.482-0.82-0.731-0.337-0.583-0.337-1.625 0-2.095 0.885-1.175 2.407-1.244 3.345-0.137 0.274 0.33 0.339 0.545 0.339 1.144 0 0.947-0.327 1.505-1.082 1.844-0.715 0.327-1.08 0.327-1.782-0.025"/><path d="m311.41 283.38c-1.416-0.638-1.429-2.957-0.011-3.601 0.704-0.314 1.141-0.314 1.781 0.011 0.742 0.379 1.089 0.949 1.089 1.779 0 0.733-0.221 1.173-0.855 1.641-0.444 0.323-1.466 0.417-2.004 0.17"/><path d="m311.52 276.92c-1.158-0.508-1.497-2.095-0.677-3.129 0.692-0.888 2.249-0.929 3.018-0.084 0.575 0.64 0.649 1.798 0.156 2.536-0.468 0.727-1.65 1.042-2.497 0.677"/><path d="m311.83 270.57c-1.033-0.182-1.511-0.886-1.424-2.068 0.067-0.857 0.382-1.313 1.112-1.624 1.371-0.586 2.766 0.329 2.766 1.822 0 1.365-1 2.13-2.454 1.87"/><path d="m311.57 264.1c-0.649-0.323-0.997-0.987-0.971-1.854 0.023-1.169 0.789-1.892 1.986-1.875 1.108 0.014 1.822 0.686 1.896 1.778 0.134 1.617-1.455 2.666-2.911 1.951"/><path d="m311.17 257.33c-1.467-1.233-0.662-3.552 1.236-3.552 1.912 0 2.731 2.301 1.262 3.552-0.365 0.301-0.547 0.35-1.25 0.35-0.698 0-0.883-0.049-1.248-0.35"/><path d="m321.24 278.84c-1.418-0.638-1.43-2.957-0.012-3.602 0.701-0.316 1.141-0.316 1.781 0.011 0.742 0.379 1.09 0.95 1.09 1.782 0 0.731-0.222 1.171-0.856 1.639-0.445 0.325-1.467 0.416-2.003 0.17"/><path d="m321.34 272.39c-1.155-0.509-1.494-2.096-0.674-3.13 0.689-0.885 2.248-0.929 3.016-0.081 0.574 0.637 0.65 1.789 0.158 2.532-0.469 0.73-1.653 1.042-2.5 0.679"/><path d="m321.66 266.04c-1.029-0.18-1.509-0.886-1.422-2.068 0.065-0.859 0.381-1.314 1.112-1.628 1.371-0.584 2.766 0.331 2.766 1.826 0 1.365-1.003 2.127-2.456 1.87"/><path d="m321.4 259.57c-0.651-0.327-1-0.987-0.971-1.856 0.022-1.169 0.789-1.892 1.984-1.874 1.108 0.016 1.822 0.688 1.9 1.778 0.129 1.616-1.459 2.667-2.913 1.952"/><path d="m320.94 252.39c-1.417-0.638-1.432-2.954-0.014-3.6 0.707-0.314 1.142-0.314 1.785 9e-3 0.742 0.38 1.086 0.953 1.086 1.785 0 0.73-0.223 1.168-0.857 1.638-0.44 0.324-1.464 0.417-2 0.168"/><path d="m321.05 245.94c-1.16-0.508-1.496-2.097-0.674-3.132 0.686-0.887 2.244-0.926 3.016-0.082 0.573 0.639 0.645 1.795 0.156 2.535-0.467 0.728-1.655 1.042-2.498 0.679"/><path d="m321.35 239.59c-1.03-0.184-1.508-0.888-1.422-2.069 0.068-0.858 0.382-1.315 1.109-1.627 1.374-0.586 2.768 0.327 2.768 1.822 0 1.365-0.997 2.133-2.455 1.874"/><path d="m321.09 233.12c-0.646-0.325-0.997-0.99-0.973-1.856 0.026-1.17 0.796-1.892 1.988-1.875 1.111 0.016 1.821 0.687 1.898 1.779 0.134 1.614-1.454 2.668-2.913 1.952"/><path d="m320.69 226.34c-1.465-1.232-0.661-3.55 1.236-3.55 1.916 0 2.736 2.3 1.261 3.55-0.363 0.303-0.546 0.35-1.248 0.35-0.699 0-0.884-0.047-1.249-0.35"/><path d="m310.35 225.34c-1.415-0.639-1.429-2.957-0.011-3.601 0.707-0.315 1.146-0.315 1.781 0.012 0.746 0.377 1.09 0.946 1.09 1.781 0 0.728-0.221 1.169-0.855 1.638-0.444 0.324-1.467 0.416-2.005 0.17"/><path d="m310.46 218.88c-1.158-0.511-1.494-2.099-0.674-3.133 0.689-0.888 2.248-0.927 3.016-0.083 0.574 0.64 0.649 1.793 0.156 2.537-0.469 0.727-1.65 1.039-2.498 0.679"/><path d="m310.77 212.53c-1.03-0.182-1.51-0.887-1.418-2.068 0.061-0.858 0.376-1.314 1.106-1.626 1.375-0.585 2.769 0.328 2.769 1.823 0 1.366-1 2.129-2.457 1.871"/><path d="m310.51 206.06c-0.646-0.324-0.997-0.986-0.975-1.857 0.025-1.168 0.793-1.888 1.988-1.874 1.11 0.017 1.822 0.689 1.9 1.781 0.13 1.616-1.458 2.665-2.913 1.95"/><path d="m310.11 199.28c-1.465-1.232-0.66-3.548 1.237-3.548 1.915 0 2.73 2.298 1.263 3.548-0.367 0.302-0.549 0.354-1.25 0.354s-0.885-0.052-1.25-0.354"/><path d="m319.73 217.93c-1.417-0.635-1.429-2.953-0.013-3.598 0.703-0.315 1.142-0.315 1.782 0.011 0.742 0.379 1.09 0.947 1.09 1.781 0 0.73-0.222 1.171-0.856 1.639-0.446 0.323-1.465 0.416-2.003 0.167"/><path d="m319.83 211.47c-1.154-0.508-1.492-2.098-0.674-3.129 0.692-0.889 2.249-0.93 3.018-0.084 0.573 0.637 0.65 1.794 0.158 2.534-0.469 0.727-1.653 1.04-2.502 0.679"/><path d="m320.15 205.13c-1.032-0.183-1.51-0.889-1.424-2.07 0.067-0.857 0.381-1.313 1.109-1.625 1.375-0.588 2.764 0.326 2.764 1.822 0 1.366-0.996 2.13-2.449 1.873"/><path d="m301.29 226.85c-1.418-0.637-1.433-2.953-0.015-3.599 0.704-0.315 1.144-0.315 1.781 0.01 0.745 0.379 1.091 0.951 1.091 1.781 0 0.73-0.226 1.171-0.857 1.639-0.443 0.325-1.467 0.418-2 0.169"/><path d="m301.39 220.39c-1.158-0.51-1.494-2.1-0.676-3.133 0.691-0.886 2.25-0.927 3.017-0.083 0.575 0.639 0.649 1.795 0.157 2.537-0.466 0.726-1.65 1.042-2.498 0.679"/><path d="m301.7 214.05c-1.031-0.184-1.51-0.888-1.42-2.069 0.062-0.857 0.378-1.314 1.106-1.626 1.377-0.585 2.765 0.328 2.765 1.821 0 1.368-0.997 2.132-2.451 1.874"/><path d="m302.65 242.26c-1.416-0.637-1.429-2.954-0.013-3.599 0.705-0.316 1.144-0.316 1.781 0.011 0.748 0.378 1.092 0.949 1.092 1.781 0 0.729-0.223 1.17-0.858 1.639-0.442 0.324-1.466 0.417-2.002 0.168"/><path d="m302.76 235.81c-1.16-0.511-1.494-2.1-0.675-3.133 0.689-0.887 2.249-0.928 3.017-0.084 0.574 0.639 0.647 1.796 0.152 2.536-0.466 0.73-1.646 1.042-2.494 0.681"/><path d="m329.7 253.6c-1.419-0.639-1.432-2.954-0.013-3.598 0.704-0.318 1.143-0.318 1.782 0.01 0.742 0.38 1.089 0.948 1.089 1.78 0 0.731-0.221 1.169-0.855 1.639-0.444 0.323-1.467 0.418-2.003 0.169"/><path d="m329.81 247.15c-1.154-0.511-1.493-2.1-0.673-3.133 0.69-0.889 2.25-0.93 3.016-0.084 0.575 0.639 0.651 1.794 0.157 2.535-0.469 0.727-1.651 1.042-2.5 0.682"/><path d="m330.12 240.8c-1.03-0.182-1.511-0.885-1.422-2.068 0.065-0.855 0.38-1.314 1.11-1.625 1.375-0.586 2.768 0.327 2.768 1.822 0 1.366-1.003 2.132-2.456 1.871"/><path d="m329.86 234.33c-0.649-0.325-0.997-0.988-0.973-1.856 0.025-1.17 0.793-1.89 1.988-1.874 1.105 0.015 1.82 0.687 1.898 1.779 0.127 1.616-1.459 2.665-2.913 1.951"/><path d="m329.46 227.55c-1.465-1.233-0.66-3.551 1.238-3.551 1.914 0 2.731 2.3 1.26 3.551-0.365 0.302-0.545 0.351-1.248 0.351-0.699 0-0.885-0.049-1.25-0.351"/><path d="m329.78 221.04c-0.235-0.167-0.548-0.458-0.692-0.638-0.339-0.468-0.351-1.495-0.017-2.084 0.28-0.478 1.2-1.026 1.75-1.026 0.553 0 1.453 0.548 1.717 1.044 0.322 0.631 0.307 1.545-0.074 2.093-0.577 0.882-1.854 1.167-2.684 0.611"/><path d="m291.62 225.19c-1.418-0.638-1.432-2.954-0.016-3.599 0.706-0.316 1.146-0.316 1.783 0.011 0.744 0.38 1.092 0.95 1.092 1.78 0 0.729-0.224 1.17-0.857 1.639-0.444 0.325-1.469 0.418-2.002 0.169"/><path d="m291.72 218.73c-1.159-0.51-1.494-2.1-0.678-3.13 0.691-0.888 2.249-0.93 3.02-0.084 0.573 0.637 0.648 1.793 0.155 2.533-0.467 0.728-1.651 1.042-2.497 0.681"/><path d="m339.53 269.62c-1.419-0.639-1.433-2.956-0.015-3.598 0.705-0.316 1.144-0.316 1.781 7e-3 0.746 0.381 1.094 0.954 1.094 1.785 0 0.729-0.227 1.167-0.862 1.635-0.439 0.325-1.466 0.417-1.998 0.171"/><path d="m339.64 263.17c-1.16-0.508-1.496-2.097-0.676-3.13 0.687-0.889 2.25-0.93 3.018-0.081 0.574 0.636 0.646 1.791 0.152 2.532-0.467 0.727-1.647 1.042-2.494 0.679"/><path d="m330.31 275.37c-1.416-0.637-1.43-2.955-0.016-3.6 0.706-0.316 1.146-0.316 1.779 0.012 0.748 0.378 1.095 0.949 1.095 1.782 0 0.73-0.22 1.169-0.86 1.637-0.44 0.323-1.465 0.415-1.998 0.169"/><path d="m330.42 268.91c-1.16-0.514-1.494-2.1-0.674-3.133 0.69-0.888 2.248-0.929 3.016-0.084 0.573 0.64 0.645 1.795 0.153 2.534-0.463 0.728-1.646 1.042-2.495 0.683"/><path d="m330.72 262.56c-1.03-0.183-1.506-0.888-1.418-2.069 0.06-0.857 0.377-1.315 1.105-1.627 1.378-0.583 2.768 0.327 2.768 1.822 0 1.365-0.997 2.132-2.455 1.874"/><path d="m356.76 241.96c-1.414-0.638-1.43-2.957-0.012-3.599 0.705-0.317 1.141-0.317 1.779 9e-3 0.745 0.38 1.092 0.95 1.092 1.783 0 0.73-0.222 1.169-0.857 1.636-0.444 0.326-1.466 0.415-2.002 0.171"/><path d="m356.87 235.51c-1.159-0.508-1.495-2.097-0.679-3.129 0.689-0.888 2.249-0.929 3.016-0.084 0.579 0.64 0.651 1.795 0.157 2.534-0.466 0.728-1.65 1.042-2.494 0.679"/><path d="m357.17 229.16c-1.028-0.182-1.51-0.887-1.42-2.068 0.064-0.859 0.379-1.316 1.111-1.625 1.371-0.585 2.766 0.327 2.766 1.82 0 1.367-0.998 2.131-2.457 1.873"/><path d="m311.72 248.31c-1.418-0.638-1.433-2.955-0.014-3.601 0.703-0.314 1.143-0.314 1.782 0.012 0.742 0.379 1.089 0.951 1.089 1.783 0 0.728-0.221 1.168-0.855 1.637-0.445 0.325-1.467 0.415-2.002 0.169"/><path d="m311.82 241.86c-1.158-0.511-1.498-2.097-0.679-3.129 0.693-0.89 2.251-0.929 3.019-0.085 0.576 0.64 0.65 1.795 0.154 2.537-0.465 0.726-1.648 1.04-2.494 0.677"/><path d="m312.13 235.51c-1.03-0.182-1.508-0.887-1.421-2.068 0.063-0.857 0.379-1.315 1.11-1.628 1.373-0.583 2.767 0.328 2.767 1.823 0 1.368-1.001 2.134-2.456 1.873"/><path d="m338.9 253.25c-0.561-0.35-0.989-1.277-0.897-1.964 0.137-1.036 0.987-1.731 2.089-1.718 1.474 0.029 2.366 1.666 1.613 2.968-0.544 0.934-1.884 1.274-2.805 0.714"/><path d="m339.52 247.25c-1.219-0.361-1.836-1.711-1.261-2.834 0.346-0.689 0.807-0.973 1.659-1.036 0.849-0.052 1.406 0.231 1.82 0.907 0.901 1.465-0.595 3.462-2.218 2.963"/><path d="m339.08 240.49c-0.674-0.369-0.947-0.81-1.002-1.666-0.067-0.925 0.223-1.472 0.986-1.861 1.41-0.702 2.875 0.194 2.875 1.756 0 1.533-1.531 2.484-2.859 1.771"/><path d="m339.47 233.94c-0.667-0.24-0.953-0.51-1.215-1.185-0.522-1.36 0.413-2.654 1.941-2.654 1.067 0 1.907 0.887 1.907 2.033 0 1.274-1.403 2.232-2.633 1.806"/><path d="m339.23 227.4c-0.679-0.252-1.212-0.874-1.316-1.586-0.102-0.754 0.343-1.684 0.989-2.018 1.013-0.521 2.274-0.157 2.759 0.806 0.828 1.639-0.732 3.422-2.432 2.798"/><path d="m338.66 220.92c-1.498-1.261-0.719-3.563 1.215-3.563 1.524 0 2.542 1.809 1.709 3.068-0.574 0.884-2.144 1.146-2.924 0.495"/><path d="m347.98 248.71c-0.568-0.349-0.997-1.277-0.901-1.965 0.139-1.038 0.988-1.731 2.087-1.718 1.48 0.028 2.37 1.663 1.614 2.966-0.541 0.934-1.88 1.275-2.8 0.717"/><path d="m348.58 242.72c-1.221-0.364-1.831-1.712-1.261-2.835 0.351-0.692 0.808-0.974 1.664-1.039 0.849-0.05 1.406 0.235 1.821 0.91 0.897 1.463-0.598 3.46-2.224 2.964"/><path d="m348.15 235.96c-0.671-0.368-0.949-0.813-0.999-1.666-0.067-0.923 0.223-1.47 0.984-1.861 1.407-0.702 2.877 0.195 2.877 1.756 0 1.534-1.533 2.483-2.862 1.771"/><path d="m348.53 229.4c-0.66-0.243-0.949-0.512-1.211-1.185-0.52-1.364 0.416-2.656 1.94-2.656 1.066 0 1.91 0.889 1.91 2.034 0 1.272-1.404 2.228-2.639 1.807"/><path d="m348.3 222.86c-0.676-0.252-1.208-0.874-1.313-1.586-0.101-0.756 0.339-1.684 0.991-2.019 1.012-0.521 2.271-0.156 2.755 0.804 0.831 1.64-0.73 3.423-2.433 2.801"/></g></svg>
