<svg xmlns="http://www.w3.org/2000/svg" width="283.535" height="63.495"><g transform="matrix(1.333333 0 0 -1.333333 -254.58533 234.13333)" fill="#616a46"><path d="M201.062 170.053c0 1.94-1.368 3.606-3.582 3.606h-4.726v-7.213h4.726c2.189 0 3.582 1.667 3.582 3.607zm1.865 0c0-2.935-2.288-5.397-5.447-5.397h-4.726v-6.616h-1.815v17.41h6.541c3.258 0 5.447-2.462 5.447-5.397m18.875-3.332c0-.772-.622-1.368-1.368-1.368s-1.369.596-1.369 1.368a1.38 1.38 0 0 0 1.369 1.367 1.38 1.38 0 0 0 1.368-1.367zm5.247 0c0 3.929-2.686 7.113-6.591 7.113-3.929 0-6.615-3.184-6.615-7.113s2.686-7.114 6.615-7.114c3.905 0 6.591 3.184 6.591 7.114zm1.841 0c0-4.901-3.532-8.88-8.432-8.88s-8.456 3.979-8.456 8.88 3.557 8.879 8.456 8.879 8.432-3.98 8.432-8.879m32.18 8.729l-5.62-17.41h-1.816l-4.452 14.476-4.452-14.476h-1.816l-5.696 17.41h2.015l4.626-14.45 4.452 14.45h1.741l4.452-14.45 4.626 14.45h1.94m20.267-15.619v-1.791h-11.566v17.41h11.417v-1.791h-9.625v-6.018h8.854v-1.791h-8.854v-6.019h9.774m20.168-1.791l-3.731 6.616h-.099-4.726v-6.616h-1.791v8.406h6.517c2.213 0 3.606 1.667 3.606 3.607 0 1.965-1.393 3.606-3.606 3.606h-6.517v1.791h6.517c3.283 0 5.471-2.437 5.471-5.397a5.39 5.39 0 0 0-3.506-5.049l3.929-6.964h-2.064m42.351 17.41v-17.41h-1.815v13.953l-6.144-9.6h-1.218l-6.094 9.6V158.04h-1.815v17.41h1.667l6.864-10.844 6.889 10.844h1.666m10.195-4.949h1.79V158.04h-1.79zm0 4.949h1.79v-2.637h-1.79zm25.218 0v-17.41h-1.642l-9.8 14.127V158.04h-1.79v17.41h1.642l9.799-14.077v14.077h1.791"/><path d="M403.59 166.745c0-4.8-3.433-8.705-8.779-8.705h-5.348v8.183h1.79v-6.368h3.408c4.452 0 7.014 3.06 7.014 6.89 0 3.806-2.661 6.914-6.989 6.914h-5.223v1.791h5.348c5.421 0 8.779-3.904 8.779-8.705m-138.887-30.742c.656 0 1.177-.54 1.177-1.177s-.521-1.157-1.177-1.157a1.16 1.16 0 0 0-1.157 1.157c0 .637.521 1.177 1.157 1.177zm3.839-4.031l1.697-.849c-1.138-1.89-3.144-3.144-5.574-3.144-3.8 0-6.558 3.067-6.558 6.867 0 3.818 2.758 6.885 6.558 6.885a6.38 6.38 0 0 0 5.574-3.164l-1.697-.829c-.791 1.292-2.16 2.142-3.877 2.142-2.797 0-4.668-2.238-4.668-5.034 0-2.778 1.871-5.034 4.668-5.034 1.717 0 3.086.848 3.877 2.16"/><path d="M291.065 129.966v-1.852h-8.12v13.501h1.852v-11.649h6.268m22.755 11.649v-8.061c0-3.646-2.178-5.575-5.11-5.575s-5.111 1.929-5.111 5.575v8.061h1.851v-8.004c0-2.739 1.369-3.799 3.26-3.799s3.278 1.06 3.278 3.799v8.004h1.832"/><path d="M334.628 132.203c0 1.331-.887 2.18-2.469 2.18h-3.298v-4.437h3.298c1.563 0 2.469.907 2.469 2.257zm1.891 0c0-2.431-1.794-4.089-4.36-4.089h-5.13v8.004h4.764c1.331 0 2.025.849 2.025 1.852s-.521 1.813-1.736 1.813h-5.053v1.832h5.053c2.372 0 3.646-1.678 3.646-3.645 0-1.041-.56-1.89-1.332-2.507 1.274-.56 2.123-1.679 2.123-3.26M263.947 278.03c-.713-.495-.962-.938-.962-1.705.012-.92.312-1.434 1.004-1.768.699-.34 1.17-.34 1.884-.014.623.287 1.052 1.017 1.068 1.793.01 1.479-1.796 2.494-2.994 1.694m9.832 3.233c-1.417-.637-1.432-2.955-.014-3.601.705-.314 1.145-.314 1.782.012.744.376 1.091.949 1.091 1.78 0 .732-.223 1.172-.857 1.641-.443.321-1.467.415-2.002.168m-37.354-38.774c-.651-.426-1.042-1.294-.911-2.023.221-1.12 1.042-1.772 2.13-1.647 1.109.11 1.785.866 1.785 1.981 0 .75-.38 1.352-1.042 1.705-.727.366-1.404.366-1.962-.016m8.614 22.851c-.561-.352-.99-1.277-.898-1.964.142-1.039.989-1.73 2.091-1.719 1.474.029 2.368 1.664 1.614 2.966-.543.935-1.886 1.274-2.807.717m.612-5.997c-1.218-.364-1.83-1.713-1.26-2.835.35-.692.807-.973 1.666-1.039.845-.047 1.404.234 1.818.908.899 1.468-.596 3.462-2.224 2.966m-.435-6.757c-.674-.369-.949-.811-.999-1.666-.069-.925.219-1.472.984-1.861 1.407-.705 2.878.195 2.878 1.755 0 1.535-1.535 2.482-2.863 1.772m.383-6.556c-.664-.238-.949-.512-1.21-1.184-.521-1.363.415-2.655 1.938-2.655 1.066 0 1.91.89 1.91 2.033 0 1.275-1.404 2.23-2.638 1.806m-.233-6.541c-.678-.25-1.21-.873-1.316-1.588-.1-.752.341-1.681.989-2.014 1.015-.52 2.274-.158 2.759.803.831 1.64-.728 3.423-2.432 2.799m-.575-6.473c-1.497-1.258-.714-3.56 1.219-3.56 1.524 0 2.539 1.809 1.706 3.065-.571.884-2.143 1.147-2.925.495m.825-5.383c-.949-.315-1.414-.958-1.414-2.002 0-1.156.948-1.964 2.195-1.87.624.041.768.115 1.184.567.637.679.767 1.358.416 2.165-.143.307-.429.681-.637.84-.451.313-1.245.453-1.744.3m-9.22 20.332c-1.395-.605-1.525-2.689-.224-3.481a2.39 2.39 0 0 1 1.913-.169c.78.3 1.273 1.342 1.119 2.331-.196 1.143-1.664 1.843-2.808 1.319"/><path d="M236.887 237.019c-.87-.219-1.561-1.271-1.455-2.193.219-1.967 2.74-2.447 3.716-.704.521.92.171 2.185-.752 2.655-.417.214-1.146.336-1.509.242m26.916 35.173c-1.417-.637-1.43-2.955-.013-3.599.704-.314 1.144-.314 1.781.013.744.376 1.092.946 1.092 1.78 0 .729-.224 1.169-.858 1.638-.443.327-1.467.415-2.002.168m10.083 2.614c-1.159-.509-1.496-2.099-.677-3.129.69-.889 2.249-.929 3.019-.086.573.641.648 1.796.155 2.537-.467.726-1.65 1.042-2.497.678m18.221-38.439c-.805-.715-.948-1.901-.321-2.783.542-.768 1.909-.986 2.717-.444 1.101.741 1.195 2.265.181 3.216-.275.254-.506.323-1.221.368-.836.042-.913.023-1.356-.357m-9.5-9.821c-1.625-.951-1.052-3.452.849-3.695 1.181-.145 2.185.779 2.185 2.041 0 1.505-1.69 2.42-3.034 1.654m47.456-15.336l-.544-.194c-.01 0-.183-.224-.364-.484-.234-.364-.323-.658-.323-1.144 0-1.91 2.168-2.731 3.514-1.311.436.479.516 1.77.14 2.377-.467.741-1.522 1.067-2.423.756m18.667 48.082a1.9 1.9 0 0 1-.741-2.584c.988-1.922 3.74-1.278 3.74.868 0 1.558-1.646 2.5-2.999 1.716m-93.694 12.447c-1.417-.635-1.429-2.954-.014-3.599.705-.314 1.145-.314 1.782.011a1.83 1.83 0 0 1 1.091 1.784c0 .727-.223 1.169-.857 1.636-.444.323-1.468.415-2.002.168m.108-6.456c-1.159-.509-1.496-2.098-.679-3.13.692-.885 2.251-.929 3.021-.083.574.638.648 1.795.155 2.536-.467.727-1.651 1.042-2.497.677m.308-6.347c-1.031-.183-1.511-.886-1.42-2.069.064-.856.378-1.313 1.109-1.627 1.374-.585 2.766.328 2.766 1.823 0 1.366-.999 2.132-2.455 1.873m-.258-6.469c-.651-.325-1.002-.99-.975-1.858.024-1.17.793-1.89 1.988-1.873 1.107.014 1.821.686 1.897 1.778.13 1.616-1.454 2.668-2.91 1.953m-.401-6.779c-1.467-1.234-.662-3.549 1.236-3.549 1.913 0 2.732 2.297 1.262 3.549-.365.299-.546.351-1.251.351s-.883-.052-1.247-.351m.317-6.507a4.42 4.42 0 0 1-.689-.637c-.341-.469-.352-1.497-.013-2.084.275-.481 1.196-1.027 1.742-1.027.559 0 1.457.546 1.719 1.043.323.629.311 1.547-.069 2.094-.58.883-1.855 1.165-2.69.611m.189-6.031c-.781-.235-1.248-.95-1.288-1.95-.014-.695.208-1.123.858-1.616.505-.376 1.6-.428 2.147-.092a2.01 2.01 0 0 1 .936 1.708c0 .8-.364 1.426-1.041 1.779-.584.309-.989.35-1.612.171m-.1-5.955c-.325-.174-.689-.481-.819-.73-.337-.584-.337-1.626 0-2.099.885-1.175 2.405-1.242 3.342-.136.275.332.341.547.341 1.145 0 .949-.329 1.508-1.083 1.845-.713.326-1.078.326-1.781-.025m8.711 38.544c-1.159-.512-1.495-2.1-.678-3.133.693-.887 2.25-.926 3.019-.084.574.641.648 1.796.156 2.537-.468.729-1.651 1.041-2.497.68m.308-6.349c-1.031-.182-1.509-.888-1.421-2.069.064-.857.379-1.314 1.109-1.625 1.374-.584 2.766.325 2.766 1.822 0 1.366-.998 2.131-2.454 1.872m-.259-6.469c-.648-.325-.999-.989-.974-1.858.024-1.169.794-1.89 1.988-1.872 1.109.013 1.821.685 1.898 1.778.131 1.615-1.455 2.667-2.912 1.952m-.4-6.781c-1.466-1.23-.663-3.548 1.237-3.548 1.912 0 2.731 2.298 1.261 3.548-.365.301-.545.352-1.252.352-.697 0-.88-.051-1.246-.352m.319-6.508a4.25 4.25 0 0 1-.691-.635c-.34-.469-.351-1.495-.014-2.084.276-.479 1.198-1.026 1.746-1.026.556 0 1.456.547 1.719 1.043.32.63.308 1.546-.072 2.093-.58.884-1.856 1.166-2.688.609m.188-6.028c-.779-.235-1.248-.952-1.29-1.952-.012-.694.209-1.12.861-1.613.505-.375 1.598-.428 2.147-.093.584.381.935 1.002.935 1.706 0 .801-.365 1.428-1.041 1.779-.585.311-.989.352-1.612.173m-.099-5.956c-.326-.172-.689-.482-.819-.729-.337-.583-.337-1.625 0-2.097.885-1.176 2.404-1.242 3.341-.139.275.335.34.547.34 1.143 0 .951-.326 1.511-1.082 1.846-.714.326-1.08.326-1.78-.024m10.227 40.81c-1.03-.182-1.509-.887-1.421-2.069.064-.855.38-1.314 1.109-1.627 1.375-.581 2.767.332 2.767 1.826 0 1.364-.999 2.131-2.455 1.87m-.259-6.469c-.648-.324-.999-.989-.974-1.858.024-1.166.793-1.89 1.988-1.872 1.108.014 1.821.686 1.898 1.778.132 1.615-1.455 2.667-2.912 1.952"/><path d="M273.535 255.208c-1.466-1.23-.662-3.548 1.236-3.548 1.913 0 2.732 2.299 1.261 3.548-.365.303-.545.353-1.251.353-.697 0-.882-.05-1.246-.353m.319-6.505c-.234-.168-.545-.459-.69-.635-.341-.472-.352-1.497-.015-2.087.276-.479 1.198-1.026 1.747-1.026.556 0 1.456.547 1.717 1.044.323.63.308 1.545-.071 2.092-.58.884-1.855 1.168-2.688.612m.188-6.03c-.78-.236-1.249-.95-1.29-1.952-.013-.694.209-1.12.861-1.614.504-.375 1.597-.428 2.146-.093.585.382.935 1.002.935 1.707 0 .802-.364 1.428-1.042 1.781-.583.308-.987.35-1.61.171m-.099-5.957c-.326-.171-.69-.48-.819-.729-.338-.582-.338-1.624 0-2.096.885-1.178 2.403-1.243 3.34-.139.277.333.34.547.34 1.145 0 .95-.325 1.511-1.082 1.844-.713.327-1.079.327-1.779-.025m18.406 47.667c-.563-.349-.991-1.277-.897-1.964.14-1.038.986-1.73 2.088-1.718 1.474.029 2.37 1.665 1.615 2.966-.542.936-1.885 1.276-2.806.716m.614-5.997c-1.219-.362-1.833-1.711-1.263-2.834.352-.689.808-.972 1.665-1.036.849-.049 1.405.234 1.82.909.897 1.465-.597 3.46-2.222 2.961m-.437-6.756c-.673-.37-.949-.81-1-1.667-.068-.923.221-1.471.985-1.858 1.407-.706 2.877.194 2.877 1.754 0 1.534-1.533 2.483-2.862 1.771m.383-6.555c-.665-.241-.951-.511-1.212-1.185-.521-1.361.416-2.653 1.939-2.653 1.066 0 1.909.888 1.909 2.033 0 1.275-1.403 2.23-2.636 1.805"/><path d="M292.673 258.535c-.674-.253-1.208-.872-1.313-1.587-.101-.756.34-1.682.989-2.015 1.013-.521 2.273-.159 2.76.802.829 1.641-.73 3.424-2.436 2.8m-.573-6.473c-1.496-1.262-.715-3.56 1.219-3.56 1.524 0 2.539 1.806 1.706 3.065-.571.884-2.146 1.147-2.925.495m.826-5.386c-.949-.312-1.415-.958-1.415-2 0-1.155.947-1.964 2.197-1.872.623.041.767.118 1.183.569.637.677.766 1.357.416 2.165-.143.308-.43.682-.638.839-.45.314-1.248.455-1.743.299m-10.08 37.762c-1.416-.64-1.429-2.955-.013-3.601.705-.315 1.145-.315 1.782.012.744.376 1.091.948 1.091 1.78 0 .731-.223 1.169-.857 1.64-.443.322-1.466.415-2.003.169"/><path d="M282.953 277.98c-1.157-.509-1.495-2.098-.675-3.129.69-.889 2.248-.93 3.017-.086.574.64.648 1.796.156 2.537-.468.728-1.65 1.042-2.498.678m.309-6.348c-1.03-.181-1.51-.887-1.422-2.068.065-.857.38-1.314 1.11-1.627 1.375-.582 2.766.33 2.766 1.825 0 1.365-.998 2.131-2.454 1.87m-.259-6.47c-.648-.323-.998-.987-.974-1.856.025-1.169.794-1.889 1.987-1.872 1.109.013 1.821.686 1.899 1.777.131 1.616-1.456 2.665-2.912 1.951m-.399-6.779c-1.467-1.233-.664-3.55 1.236-3.55 1.913 0 2.73 2.3 1.261 3.55-.365.304-.545.352-1.25.352-.698 0-.883-.048-1.247-.352m.318-6.507a4.25 4.25 0 0 1-.69-.636c-.341-.469-.352-1.493-.015-2.084.277-.479 1.197-1.026 1.746-1.026.556 0 1.456.547 1.719 1.043.32.631.308 1.544-.072 2.093-.581.884-1.856 1.167-2.688.61m.188-6.028c-.779-.236-1.246-.954-1.29-1.954-.012-.692.209-1.12.861-1.612.504-.376 1.597-.428 2.147-.091.586.38.934 1 .934 1.703 0 .802-.364 1.428-1.041 1.78a1.88 1.88 0 0 1-1.611.174m-.101-5.957c-.324-.172-.687-.48-.818-.729-.338-.583-.338-1.625 0-2.096.885-1.178 2.404-1.244 3.341-.14.278.334.341.546.341 1.143 0 .951-.326 1.51-1.081 1.846-.715.327-1.081.327-1.783-.024m20.054 43.229c-1.033-.182-1.509-.888-1.418-2.069.06-.858.376-1.314 1.106-1.625 1.375-.586 2.768.327 2.768 1.824 0 1.361-.998 2.13-2.456 1.87"/><path d="M302.804 276.649c-.646-.322-.998-.987-.975-1.855.025-1.172.797-1.89 1.987-1.876 1.112.015 1.823.689 1.9 1.779.133 1.615-1.455 2.667-2.912 1.952m-.4-6.778c-1.467-1.232-.663-3.549 1.238-3.549 1.912 0 2.728 2.298 1.259 3.549-.365.304-.547.351-1.25.351s-.882-.047-1.247-.351m.319-6.504c-.235-.171-.546-.46-.693-.639-.338-.469-.349-1.496-.012-2.083.276-.482 1.196-1.027 1.747-1.027s1.455.545 1.716 1.046c.325.629.311 1.543-.068 2.089-.582.885-1.858 1.17-2.69.614m.19-6.032c-.781-.237-1.25-.95-1.293-1.953-.01-.692.209-1.123.862-1.615.502-.373 1.598-.427 2.146-.09a2.01 2.01 0 0 1 .935 1.705c0 .803-.366 1.43-1.042 1.78-.583.309-.987.351-1.608.173m-.102-5.955c-.326-.173-.691-.482-.82-.731-.337-.583-.337-1.625 0-2.095.885-1.175 2.407-1.244 3.345-.137.274.33.339.545.339 1.144 0 .947-.327 1.505-1.082 1.844-.715.327-1.08.327-1.782-.025m8.602 32c-1.416-.638-1.429-2.957-.011-3.601.704-.314 1.141-.314 1.781.011.742.379 1.089.949 1.089 1.779 0 .733-.221 1.173-.855 1.641-.444.323-1.466.417-2.004.17m.108-6.459c-1.158-.508-1.497-2.095-.677-3.129.692-.888 2.249-.929 3.018-.084.575.64.649 1.798.156 2.536-.468.727-1.65 1.042-2.497.677m.31-6.347c-1.033-.182-1.511-.886-1.424-2.068.067-.857.382-1.313 1.112-1.624 1.371-.586 2.766.329 2.766 1.822 0 1.365-1 2.13-2.454 1.87"/><path d="M311.57 264.104c-.649-.323-.997-.987-.971-1.854.023-1.169.789-1.892 1.986-1.875 1.108.014 1.822.686 1.896 1.778.134 1.617-1.455 2.666-2.911 1.951m-.399-6.777c-1.467-1.233-.662-3.552 1.236-3.552 1.912 0 2.731 2.301 1.262 3.552-.365.301-.547.35-1.25.35s-.883-.049-1.248-.35m10.069 21.518c-1.418-.638-1.43-2.957-.012-3.602.701-.316 1.141-.316 1.781.011.742.379 1.09.95 1.09 1.782 0 .731-.222 1.171-.856 1.639-.445.325-1.467.416-2.003.17m.105-6.458c-1.155-.509-1.494-2.096-.674-3.13.689-.885 2.248-.929 3.016-.081.574.637.65 1.789.158 2.532-.469.73-1.653 1.042-2.5.679m.31-6.348c-1.029-.18-1.509-.886-1.422-2.068.065-.859.381-1.314 1.112-1.628 1.371-.584 2.766.331 2.766 1.826 0 1.365-1.003 2.127-2.456 1.87m-.259-6.469c-.651-.327-1-.987-.971-1.856.022-1.169.789-1.892 1.984-1.874 1.108.016 1.822.688 1.9 1.778.129 1.616-1.459 2.667-2.913 1.952m-.457-7.178c-1.417-.638-1.432-2.954-.014-3.6.707-.314 1.142-.314 1.785.009.742.38 1.086.953 1.086 1.785 0 .73-.223 1.168-.857 1.638-.44.324-1.464.417-2 .168m.107-6.456c-1.16-.508-1.496-2.097-.674-3.132.686-.887 2.244-.926 3.016-.082.573.639.645 1.795.156 2.535-.467.728-1.655 1.042-2.498.679m.307-6.346c-1.03-.184-1.508-.888-1.422-2.069.068-.858.382-1.315 1.109-1.627 1.374-.586 2.768.327 2.768 1.822 0 1.365-.997 2.133-2.455 1.874m-.26-6.471c-.646-.325-.997-.99-.973-1.856.026-1.17.796-1.892 1.988-1.875 1.111.016 1.821.687 1.898 1.779.134 1.614-1.454 2.668-2.913 1.952m-.4-6.779c-1.465-1.232-.661-3.55 1.236-3.55 1.916 0 2.736 2.3 1.261 3.55-.363.303-.546.35-1.248.35s-.884-.047-1.249-.35m-10.339-1.001c-1.415-.639-1.429-2.957-.011-3.601.707-.315 1.146-.315 1.781.012.746.377 1.09.946 1.09 1.781 0 .728-.221 1.169-.855 1.638-.444.324-1.467.416-2.005.17m.108-6.456c-1.158-.511-1.494-2.099-.674-3.133.689-.888 2.248-.927 3.016-.083.574.64.649 1.793.156 2.537-.469.727-1.65 1.039-2.498.679m.309-6.349c-1.03-.182-1.51-.887-1.418-2.068.061-.858.376-1.314 1.106-1.626 1.375-.585 2.769.328 2.769 1.823 0 1.366-1 2.129-2.457 1.871m-.258-6.471c-.646-.324-.997-.986-.975-1.857.025-1.168.793-1.888 1.988-1.874 1.11.017 1.822.689 1.9 1.781.13 1.616-1.458 2.665-2.913 1.95m-.401-6.779c-1.465-1.232-.66-3.548 1.237-3.548 1.915 0 2.73 2.298 1.263 3.548-.367.302-.549.354-1.25.354s-.885-.052-1.25-.354m9.617 18.645c-1.417-.635-1.429-2.953-.013-3.598.703-.315 1.142-.315 1.782.011.742.379 1.09.947 1.09 1.781 0 .73-.222 1.171-.856 1.639-.446.323-1.465.416-2.003.167m.104-6.455c-1.154-.508-1.492-2.098-.674-3.129.692-.889 2.249-.93 3.018-.084.573.637.65 1.794.158 2.534-.469.727-1.653 1.04-2.502.679m.313-6.346c-1.032-.183-1.51-.889-1.424-2.07.067-.857.381-1.313 1.109-1.625 1.375-.588 2.764.326 2.764 1.822 0 1.366-.996 2.13-2.449 1.873m-18.856 21.72c-1.418-.637-1.433-2.953-.015-3.599.704-.315 1.144-.315 1.781.01.745.379 1.091.951 1.091 1.781 0 .73-.226 1.171-.857 1.639-.443.325-1.467.418-2 .169"/><path d="M301.394 220.394c-1.158-.51-1.494-2.1-.676-3.133.691-.886 2.25-.927 3.017-.083.575.639.649 1.795.157 2.537-.466.726-1.65 1.042-2.498.679m.31-6.348c-1.031-.184-1.51-.888-1.42-2.069.062-.857.378-1.314 1.106-1.626 1.377-.585 2.765.328 2.765 1.821 0 1.368-.997 2.132-2.451 1.874m.943 28.219c-1.416-.637-1.429-2.954-.013-3.599.705-.316 1.144-.316 1.781.011.748.378 1.092.949 1.092 1.781 0 .729-.223 1.17-.858 1.639-.442.324-1.466.417-2.002.168m.108-6.453c-1.16-.511-1.494-2.1-.675-3.133.689-.887 2.249-.928 3.017-.084.574.639.647 1.796.152 2.536-.466.73-1.646 1.042-2.494.681m26.95 17.79c-1.419-.639-1.432-2.954-.013-3.598.704-.318 1.143-.318 1.782.01.742.38 1.089.948 1.089 1.78 0 .731-.221 1.169-.855 1.639-.444.323-1.467.418-2.003.169m.103-6.453c-1.154-.511-1.493-2.1-.673-3.133.69-.889 2.25-.93 3.016-.084.575.639.651 1.794.157 2.535-.469.727-1.651 1.042-2.5.682m.312-6.352c-1.03-.182-1.511-.885-1.422-2.068.065-.855.38-1.314 1.11-1.625 1.375-.586 2.768.327 2.768 1.822 0 1.366-1.003 2.132-2.456 1.871m-.259-6.469c-.649-.325-.997-.988-.973-1.856.025-1.17.793-1.89 1.988-1.874 1.105.015 1.82.687 1.898 1.779.127 1.616-1.459 2.665-2.913 1.951"/><path d="M329.46 227.549c-1.465-1.233-.66-3.551 1.238-3.551 1.914 0 2.731 2.3 1.26 3.551-.365.302-.545.351-1.248.351s-.885-.049-1.25-.351m.322-6.506a4.15 4.15 0 0 1-.692-.638c-.339-.468-.351-1.495-.017-2.084.28-.478 1.2-1.026 1.75-1.026s1.453.548 1.717 1.044c.322.631.307 1.545-.074 2.093-.577.882-1.854 1.167-2.684.611m-38.166 4.144c-1.418-.638-1.432-2.954-.016-3.599.706-.316 1.146-.316 1.783.011a1.83 1.83 0 0 1 1.092 1.78c0 .729-.224 1.17-.857 1.639-.444.325-1.469.418-2.002.169m.106-6.454c-1.159-.51-1.494-2.1-.678-3.13.691-.888 2.249-.93 3.02-.084.573.637.648 1.793.155 2.533-.467.728-1.651 1.042-2.497.681m47.808 50.892c-1.419-.639-1.433-2.956-.015-3.598.705-.316 1.144-.316 1.781.007.746.381 1.094.954 1.094 1.785 0 .729-.227 1.167-.862 1.635-.439.325-1.466.417-1.998.171m.106-6.456c-1.16-.508-1.496-2.097-.676-3.13.687-.889 2.25-.93 3.018-.081.574.636.646 1.791.152 2.532-.467.727-1.647 1.042-2.494.679m-9.326 12.198c-1.416-.637-1.43-2.955-.016-3.6.706-.316 1.146-.316 1.779.012.748.378 1.095.949 1.095 1.782 0 .73-.22 1.169-.86 1.637-.44.323-1.465.415-1.998.169m.105-6.453c-1.16-.514-1.494-2.1-.674-3.133.69-.888 2.248-.929 3.016-.084.573.64.645 1.795.153 2.534-.463.728-1.646 1.042-2.495.683m.307-6.349c-1.03-.183-1.506-.888-1.418-2.069.06-.857.377-1.315 1.105-1.627 1.378-.583 2.768.327 2.768 1.822 0 1.365-.997 2.132-2.455 1.874m26.037-20.6c-1.414-.638-1.43-2.957-.012-3.599.705-.317 1.141-.317 1.779.009a1.83 1.83 0 0 1 1.092 1.783c0 .73-.222 1.169-.857 1.636-.444.326-1.466.415-2.002.171m.109-6.457c-1.159-.508-1.495-2.097-.679-3.129.689-.888 2.249-.929 3.016-.084.579.64.651 1.795.157 2.534-.466.728-1.65 1.042-2.494.679m.305-6.347c-1.028-.182-1.51-.887-1.42-2.068.064-.859.379-1.316 1.111-1.625 1.371-.585 2.766.327 2.766 1.82 0 1.367-.998 2.131-2.457 1.873m-45.455 19.15c-1.418-.638-1.433-2.955-.014-3.601.703-.314 1.143-.314 1.782.012.742.379 1.089.951 1.089 1.783 0 .728-.221 1.168-.855 1.637-.445.325-1.467.415-2.002.169m.107-6.456c-1.158-.511-1.498-2.097-.679-3.129.693-.89 2.251-.929 3.019-.085.576.64.65 1.795.154 2.537-.465.726-1.648 1.04-2.494.677m.307-6.347c-1.03-.182-1.508-.887-1.421-2.068.063-.857.379-1.315 1.11-1.628 1.373-.583 2.767.328 2.767 1.823 0 1.368-1.001 2.134-2.456 1.873m26.772 17.738c-.561-.35-.989-1.277-.897-1.964.137-1.036.987-1.731 2.089-1.718 1.474.029 2.366 1.666 1.613 2.968-.544.934-1.884 1.274-2.805.714m.615-5.997c-1.219-.361-1.836-1.711-1.261-2.834.346-.689.807-.973 1.659-1.036.849-.052 1.406.231 1.82.907.901 1.465-.595 3.462-2.218 2.963m-.438-6.757c-.674-.369-.947-.81-1.002-1.666-.067-.925.223-1.472.986-1.861 1.41-.702 2.875.194 2.875 1.756 0 1.533-1.531 2.484-2.859 1.771m.385-6.555c-.667-.24-.953-.51-1.215-1.185-.522-1.36.413-2.654 1.941-2.654 1.067 0 1.907.887 1.907 2.033 0 1.274-1.403 2.232-2.633 1.806m-.235-6.54c-.679-.252-1.212-.874-1.316-1.586-.102-.754.343-1.684.989-2.018 1.013-.521 2.274-.157 2.759.806.828 1.639-.732 3.422-2.432 2.798m-.574-6.472c-1.498-1.261-.719-3.563 1.215-3.563 1.524 0 2.542 1.809 1.709 3.068-.574.884-2.144 1.146-2.924.495m9.319 27.788c-.568-.349-.997-1.277-.901-1.965.139-1.038.988-1.731 2.087-1.718 1.48.028 2.37 1.663 1.614 2.966-.541.934-1.88 1.275-2.8.717m.609-5.997c-1.221-.364-1.831-1.712-1.261-2.835.351-.692.808-.974 1.664-1.039.849-.05 1.406.235 1.821.91.897 1.463-.598 3.46-2.224 2.964m-.436-6.758c-.671-.368-.949-.813-.999-1.666-.067-.923.223-1.47.984-1.861 1.407-.702 2.877.195 2.877 1.756 0 1.534-1.533 2.483-2.862 1.771m.381-6.553c-.66-.243-.949-.512-1.211-1.185-.52-1.364.416-2.656 1.94-2.656 1.066 0 1.91.889 1.91 2.034 0 1.272-1.404 2.228-2.639 1.807m-.232-6.541c-.676-.252-1.208-.874-1.313-1.586-.101-.756.339-1.684.991-2.019 1.012-.521 2.271-.156 2.755.804.831 1.64-.73 3.423-2.433 2.801"/></g></svg>
