<?xml version="1.0" encoding="UTF-8" standalone="no"?>
<!-- Created with Inkscape (http://www.inkscape.org/) -->

<svg
   version="1.1"
   id="svg9"
   xml:space="preserve"
   width="283.53467"
   height="63.494663"
   viewBox="0 0 283.53467 63.494666"
   xmlns="http://www.w3.org/2000/svg"
   xmlns:svg="http://www.w3.org/2000/svg"><defs
     id="defs13"><clipPath
       clipPathUnits="userSpaceOnUse"
       id="clipPath23"><path
         d="M 0,450 H 600 V 0.06 H 0 Z"
         id="path21" /></clipPath></defs><g
     id="g512"
     transform="matrix(1.3333333,0,0,-1.3333333,-254.58533,234.13333)"><path
       d="m 201.062,170.053 c 0,1.94 -1.368,3.606 -3.582,3.606 h -4.726 v -7.213 h 4.726 c 2.189,0 3.582,1.667 3.582,3.607 z m 1.865,0 c 0,-2.935 -2.288,-5.397 -5.447,-5.397 h -4.726 v -6.616 h -1.815 v 17.41 h 6.541 c 3.258,0 5.447,-2.462 5.447,-5.397"
       style="fill:#616a46;fill-opacity:1;fill-rule:nonzero;stroke:none"
       id="path27" /><path
       d="m 221.802,166.721 c 0,-0.772 -0.622,-1.368 -1.368,-1.368 -0.746,0 -1.369,0.596 -1.369,1.368 0,0.746 0.623,1.367 1.369,1.367 0.746,0 1.368,-0.621 1.368,-1.367 z m 5.247,0 c 0,3.929 -2.686,7.113 -6.591,7.113 -3.929,0 -6.615,-3.184 -6.615,-7.113 0,-3.93 2.686,-7.114 6.615,-7.114 3.905,0 6.591,3.184 6.591,7.114 z m 1.841,0 c 0,-4.901 -3.532,-8.88 -8.432,-8.88 -4.899,0 -8.456,3.979 -8.456,8.88 0,4.899 3.557,8.879 8.456,8.879 4.9,0 8.432,-3.98 8.432,-8.879"
       style="fill:#616a46;fill-opacity:1;fill-rule:nonzero;stroke:none"
       id="path29" /><path
       d="m 261.07,175.45 -5.62,-17.41 h -1.816 l -4.452,14.476 -4.452,-14.476 h -1.816 l -5.696,17.41 h 2.015 l 4.626,-14.45 4.452,14.45 h 1.741 l 4.452,-14.45 4.626,14.45 h 1.94"
       style="fill:#616a46;fill-opacity:1;fill-rule:nonzero;stroke:none"
       id="path31" /><path
       d="m 281.337,159.831 v -1.791 h -11.566 v 17.41 h 11.417 v -1.791 h -9.625 v -6.018 h 8.854 v -1.791 h -8.854 v -6.019 h 9.774"
       style="fill:#616a46;fill-opacity:1;fill-rule:nonzero;stroke:none"
       id="path33" /><path
       d="m 301.505,158.04 -3.731,6.616 c -0.025,0 -0.05,0 -0.099,0 h -4.726 v -6.616 h -1.791 v 8.406 h 6.517 c 2.213,0 3.606,1.667 3.606,3.607 0,1.965 -1.393,3.606 -3.606,3.606 h -6.517 v 1.791 c 0,0 3.607,0 6.517,0 3.283,0 5.471,-2.437 5.471,-5.397 0,-2.263 -1.417,-4.278 -3.506,-5.049 l 3.929,-6.964 h -2.064"
       style="fill:#616a46;fill-opacity:1;fill-rule:nonzero;stroke:none"
       id="path35" /><path
       d="m 343.856,175.45 v -17.41 h -1.815 v 13.953 l -6.144,-9.6 h -1.218 l -6.094,9.6 V 158.04 h -1.815 v 17.41 h 1.667 l 6.864,-10.844 6.889,10.844 h 1.666"
       style="fill:#616a46;fill-opacity:1;fill-rule:nonzero;stroke:none"
       id="path37" /><path
       d="m 354.051,170.501 h 1.79 V 158.04 h -1.79 z m 0,4.949 h 1.79 v -2.637 h -1.79 z"
       style="fill:#616a46;fill-opacity:1;fill-rule:nonzero;stroke:none"
       id="path39" /><path
       d="m 379.269,175.45 v -17.41 h -1.642 l -9.8,14.127 V 158.04 h -1.79 v 17.41 h 1.642 l 9.799,-14.077 v 14.077 h 1.791"
       style="fill:#616a46;fill-opacity:1;fill-rule:nonzero;stroke:none"
       id="path41" /><path
       d="m 403.59,166.745 c 0,-4.8 -3.433,-8.705 -8.779,-8.705 h -5.348 v 8.183 h 1.79 v -6.368 c 0.672,0 1.717,0 3.408,0 4.452,0 7.014,3.06 7.014,6.89 0,3.806 -2.661,6.914 -6.989,6.914 h -5.223 v 1.791 c 0,0 3.681,0 5.348,0 5.421,0 8.779,-3.904 8.779,-8.705"
       style="fill:#616a46;fill-opacity:1;fill-rule:nonzero;stroke:none"
       id="path43" /><path
       d="m 264.703,136.003 c 0.656,0 1.177,-0.54 1.177,-1.177 0,-0.637 -0.521,-1.157 -1.177,-1.157 -0.636,0 -1.157,0.52 -1.157,1.157 0,0.637 0.521,1.177 1.157,1.177 z m 3.839,-4.031 1.697,-0.849 c -1.138,-1.89 -3.144,-3.144 -5.574,-3.144 -3.8,0 -6.558,3.067 -6.558,6.867 0,3.818 2.758,6.885 6.558,6.885 2.43,0 4.436,-1.253 5.574,-3.164 l -1.697,-0.829 c -0.791,1.292 -2.16,2.142 -3.877,2.142 -2.797,0 -4.668,-2.238 -4.668,-5.034 0,-2.778 1.871,-5.034 4.668,-5.034 1.717,0 3.086,0.848 3.877,2.16"
       style="fill:#616a46;fill-opacity:1;fill-rule:nonzero;stroke:none"
       id="path45" /><path
       d="m 291.065,129.966 v -1.852 h -8.12 v 13.501 h 1.852 v -11.649 h 6.268"
       style="fill:#616a46;fill-opacity:1;fill-rule:nonzero;stroke:none"
       id="path47" /><path
       d="m 313.82,141.615 v -8.061 c 0,-3.646 -2.178,-5.575 -5.11,-5.575 -2.932,0 -5.111,1.929 -5.111,5.575 v 8.061 h 1.851 v -8.004 c 0,-2.739 1.369,-3.799 3.26,-3.799 1.89,0 3.278,1.06 3.278,3.799 v 8.004 h 1.832"
       style="fill:#616a46;fill-opacity:1;fill-rule:nonzero;stroke:none"
       id="path49" /><path
       d="m 334.628,132.203 c 0,1.331 -0.887,2.18 -2.469,2.18 h -3.298 v -4.437 h 3.298 c 1.563,0 2.469,0.907 2.469,2.257 z m 1.891,0 c 0,-2.431 -1.794,-4.089 -4.36,-4.089 h -5.13 v 8.004 h 4.764 c 1.331,0 2.025,0.849 2.025,1.852 0,1.003 -0.521,1.813 -1.736,1.813 h -5.053 v 1.832 h 5.053 c 2.372,0 3.646,-1.678 3.646,-3.645 0,-1.041 -0.56,-1.89 -1.332,-2.507 1.274,-0.56 2.123,-1.679 2.123,-3.26"
       style="fill:#616a46;fill-opacity:1;fill-rule:nonzero;stroke:none"
       id="path51" /></g></svg>
